<?xml version="1.0" standalone="no"?>
<!DOCTYPE svg PUBLIC "-//W3C//DTD SVG 20010904//EN"
 "http://www.w3.org/TR/2001/REC-SVG-20010904/DTD/svg10.dtd">
<svg version="1.0" xmlns="http://www.w3.org/2000/svg"
 width="112.000000pt" height="112.000000pt" viewBox="0 0 112.000000 112.000000"
 preserveAspectRatio="xMidYMid meet">
<metadata>
Created by potrace 1.11, written by Peter Selinger 2001-2013
</metadata>
<g transform="translate(0.000000,112.000000) scale(0.100000,-0.100000)"
fill="#000000" stroke="none">
<path d="M418 1076 c-13 -10 -13 -13 -2 -24 12 -11 17 -11 28 0 19 19 -4 40
-26 24z"/>
<path d="M562 1068 c-7 -7 -12 -42 -12 -85 0 -66 -2 -73 -20 -73 -15 0 -20 -7
-20 -27 0 -16 -3 -38 -6 -50 -6 -23 -9 -23 -163 -23 l-157 0 -31 -32 c-18 -18
-45 -62 -62 -98 -38 -79 -39 -49 -5 85 5 19 4 19 -7 1 -19 -31 -39 -118 -39
-176 0 -30 -7 -82 -15 -115 -21 -88 -20 -227 3 -254 16 -21 19 -21 68 -6 l50
15 53 -49 c104 -96 218 -141 362 -141 139 0 262 48 360 141 l51 49 51 -15 c51
-15 52 -15 71 7 16 20 18 35 13 128 -9 176 -76 374 -148 434 -30 25 -34 26
-184 26 -150 0 -153 0 -159 23 -3 12 -6 34 -6 50 0 20 -5 27 -20 27 -18 0 -20
7 -20 69 0 48 4 72 15 81 19 16 32 6 50 -36 10 -25 20 -34 37 -33 l23 0 -22
16 c-13 8 -23 23 -23 32 0 37 -60 57 -88 29z m28 -178 c0 -5 -13 -10 -30 -10
-16 0 -30 5 -30 10 0 6 14 10 30 10 17 0 30 -4 30 -10z m0 -40 c0 -5 -13 -10
-30 -10 -16 0 -30 5 -30 10 0 6 14 10 30 10 17 0 30 -4 30 -10z m10 -30 c0 -5
-18 -10 -40 -10 -22 0 -40 5 -40 10 0 6 18 10 40 10 22 0 40 -4 40 -10z m351
-52 c61 -64 139 -296 139 -415 0 -62 0 -63 -27 -63 -38 0 -120 40 -209 101
-68 47 -74 54 -74 86 0 99 -114 133 -169 50 -31 -47 -73 -52 -93 -10 -7 15
-28 35 -45 46 -59 34 -133 -9 -133 -78 0 -37 -18 -55 -117 -119 -72 -47 -140
-76 -173 -76 -26 0 -32 39 -19 122 21 140 84 303 134 354 l24 24 370 0 370 0
22 -22z m-463 -245 c41 -45 7 -113 -55 -113 -40 0 -73 30 -73 66 0 78 75 106
128 47z m257 4 c36 -52 3 -117 -58 -117 -80 0 -98 112 -23 139 29 11 65 1 81
-22z m-155 -72 c0 -10 -10 -15 -30 -15 -20 0 -30 5 -30 15 0 10 10 15 30 15
20 0 30 -5 30 -15z m-246 -74 c-136 -99 -278 -172 -304 -156 -5 3 -10 15 -10
26 0 14 7 19 29 19 34 0 153 59 226 112 42 31 51 34 59 21 5 -9 5 -18 0 -22z
m256 29 c0 -6 12 -22 26 -35 29 -27 68 -32 107 -14 21 10 32 5 88 -36 35 -26
82 -56 104 -67 l39 -21 -39 -33 c-96 -81 -215 -124 -345 -124 -135 0 -256 45
-349 130 l-44 41 49 31 c27 17 66 44 87 61 33 26 41 28 63 18 41 -18 79 -13
108 15 14 15 26 31 26 35 0 5 18 9 40 9 22 0 40 -5 40 -10z m375 -111 c33 -16
72 -29 88 -29 15 0 27 -4 27 -9 0 -22 -13 -41 -29 -41 -46 0 -291 147 -291
175 0 26 14 22 78 -22 37 -25 94 -59 127 -74z m-547 91 c18 0 43 5 55 11 21
10 21 9 -2 -10 -34 -31 -111 -23 -111 11 0 9 3 9 12 0 7 -7 27 -12 46 -12z
m264 0 c19 0 39 5 46 12 7 7 12 8 12 4 0 -16 -34 -35 -61 -36 -15 0 -37 9 -50
21 -23 19 -23 20 -2 10 12 -6 37 -11 55 -11z"/>
<path d="M220 711 c0 -13 -8 -21 -22 -23 -20 -3 -23 -9 -23 -43 0 -34 3 -40
23 -43 14 -2 22 -10 22 -23 0 -16 7 -19 40 -19 33 0 40 3 40 20 0 13 7 20 20
20 17 0 20 7 20 45 0 38 -3 45 -20 45 -13 0 -20 7 -20 20 0 17 -7 20 -40 20
-33 0 -40 -3 -40 -19z m60 -21 c0 -13 7 -20 20 -20 15 0 20 -7 20 -25 0 -18
-5 -25 -20 -25 -13 0 -20 -7 -20 -20 0 -13 -7 -20 -20 -20 -13 0 -20 7 -20 20
0 13 -7 20 -20 20 -15 0 -20 7 -20 25 0 18 5 25 20 25 13 0 20 7 20 20 0 13 7
20 20 20 13 0 20 -7 20 -20z"/>
<path d="M840 716 c-27 -33 18 -72 48 -42 13 13 14 20 6 34 -15 23 -38 26 -54
8z m40 -21 c0 -8 -7 -15 -15 -15 -8 0 -15 7 -15 15 0 8 7 15 15 15 8 0 15 -7
15 -15z"/>
<path d="M774 655 c-9 -23 3 -45 24 -45 25 0 44 23 36 44 -8 20 -53 21 -60 1z
m41 -13 c0 -18 -20 -15 -23 4 -3 10 1 15 10 12 7 -3 13 -10 13 -16z"/>
<path d="M896 654 c-9 -22 12 -46 38 -42 15 2 21 10 21 28 0 20 -6 26 -26 28
-18 2 -29 -3 -33 -14z m44 -8 c0 -8 -4 -17 -9 -21 -12 -7 -24 12 -16 25 9 15
25 12 25 -4z"/>
<path d="M840 606 c-27 -33 18 -72 48 -42 13 13 14 20 6 34 -15 23 -38 26 -54
8z m40 -21 c0 -8 -7 -15 -15 -15 -8 0 -15 7 -15 15 0 8 7 15 15 15 8 0 15 -7
15 -15z"/>
<path d="M672 224 c-11 -12 -10 -17 2 -30 15 -14 17 -14 32 0 14 14 14 18 0
31 -18 18 -18 18 -34 -1z"/>
<path d="M253 914 c-3 -8 1 -22 9 -30 13 -14 17 -14 31 1 9 8 14 22 11 30 -8
20 -43 19 -51 -1z m37 -8 c0 -3 -4 -8 -10 -11 -5 -3 -10 -1 -10 4 0 6 5 11 10
11 6 0 10 -2 10 -4z"/>
</g>
</svg>
