<?xml version="1.0" standalone="no"?>
<!DOCTYPE svg PUBLIC "-//W3C//DTD SVG 20010904//EN"
 "http://www.w3.org/TR/2001/REC-SVG-20010904/DTD/svg10.dtd">
<svg version="1.0" xmlns="http://www.w3.org/2000/svg"
 width="126.000000pt" height="126.000000pt" viewBox="0 0 126.000000 126.000000"
 preserveAspectRatio="xMidYMid meet">
<metadata>
Created by potrace 1.14, written by Peter Selinger 2001-2017
</metadata>
<g transform="translate(0.000000,126.000000) scale(0.100000,-0.100000)"
fill="#000000" stroke="none">
<path d="M519 1143 c-35 -54 -127 -195 -204 -313 -78 -118 -170 -259 -204
-313 -73 -115 -80 -96 72 -184 55 -31 101 -63 104 -71 4 -8 -13 -53 -37 -101
-23 -47 -49 -102 -57 -121 -14 -35 -13 -35 34 16 85 89 208 226 211 233 1 4
-36 32 -83 62 -48 30 -93 59 -101 64 -12 8 14 77 152 395 181 421 185 430 180
430 -2 0 -32 -44 -67 -97z"/>
<path d="M690 1228 c0 -7 61 -152 229 -542 62 -142 109 -261 106 -264 -3 -3
-48 -33 -99 -66 -81 -52 -93 -63 -83 -77 38 -51 247 -278 247 -267 0 4 -27 62
-60 129 -33 68 -59 124 -57 125 1 1 55 32 119 68 65 37 120 71 123 76 6 9 -72
137 -221 365 -47 72 -131 200 -186 285 -104 159 -118 179 -118 168z"/>
<path d="M553 735 c-111 -67 -105 -232 11 -292 79 -41 182 -9 222 69 77 149
-90 308 -233 223z"/>
</g>
</svg>
