<svg width="44" height="46" viewBox="0 0 44 46" fill="none" xmlns="http://www.w3.org/2000/svg">
<path d="M20.967 0L7.56616 30.4144L15.1895 35.1222L5.07508 46.0491L10.1273 36.1463L0.578125 30.7773L20.967 0Z" fill="#01D6E3"/>
<path d="M23.4182 0L36.819 30.4144L29.1907 35.1222L39.3101 46.0491L34.2579 36.1463L43.8071 30.7773L23.4182 0Z" fill="#01D6E3"/>
<path d="M18.7658 28.6932H25.9189V27.4952H18.7658V28.6932Z" fill="#01D6E3"/>
<path d="M21.4456 28.5929L21.4456 33.1267L23.0162 33.1267L23.0162 28.5929L21.4456 28.5929Z" fill="#01D6E3"/>
<path d="M21.2485 34.1296L23.2144 34.1296L23.2144 32.9315L21.2485 32.9315L21.2485 34.1296Z" fill="#01D6E3"/>
<path d="M22.1575 10.1116C18.9461 13.8947 18.2258 19.1842 18.2258 19.1842L20.1917 17.4442L18.7361 21.6102L20.4568 20.2232L20.2067 26.2136H22.3176H22.3276H22.3376L24.4485 26.1788L24.0734 20.1934L25.8241 21.5505L24.2785 17.4094L26.2843 19.1146C26.2843 19.1146 25.449 13.84 22.1575 10.1116Z" fill="#01D6E3"/>
</svg>
