<svg width="44" height="46" viewBox="0 0 44 46" fill="none" xmlns="http://www.w3.org/2000/svg">
<path d="M20.7707 0L7.48413 30.382L15.0474 35.0847L5.01428 46L10.0234 36.1077L0.555664 30.7445L20.7707 0Z" fill="#01D6E3"/>
<path d="M23.2009 0L36.4875 30.382L28.9242 35.0847L38.9574 46L33.9482 36.1077L43.416 30.7445L23.2009 0Z" fill="#01D6E3"/>
<path d="M17.9337 33.8186L21.6385 30.2033L25.4078 33.9377C25.5665 34.0966 25.8343 33.9675 25.8194 33.7441L25.3631 28.3957L26.6129 26.8811L27.2477 24.5321C27.2725 24.4378 27.1585 24.3683 27.089 24.4428C26.7567 24.8003 26.1566 25.1827 25.4276 24.4676L24.5696 23.7723C24.5696 23.7723 24.2224 24.8599 22.809 23.6085C22.809 23.6085 23.2801 25.431 22.6651 26.4738C22.6651 26.4738 22.8883 22.9728 17.7552 20.2713C17.7552 20.2713 17.5915 19.5115 18.4495 19.2285L20.5573 20.1521C20.5573 20.1521 21.088 20.7232 21.7228 19.6208C21.7228 19.6208 22.1097 19.2136 21.336 18.8213L18.1321 16.9143C17.8048 16.7206 17.3832 16.81 17.17 17.1278L14.5166 20.9864C14.2835 21.3241 14.3182 21.781 14.6009 22.0789L18.4347 26.1709L17.537 33.6199C17.4973 33.8434 17.7701 33.9775 17.9337 33.8186Z" fill="#01D6E3"/>
<path d="M23.3496 22.2429L22.7197 21.8059C22.437 21.6123 22.3676 21.2249 22.561 20.9419L25.2193 17.0733C25.4127 16.7903 25.7996 16.7208 26.0823 16.9144L26.7121 17.3514C26.9948 17.5451 27.0643 17.9325 26.8709 18.2155L24.2125 22.084C24.0191 22.3671 23.6323 22.4366 23.3496 22.2429Z" fill="#01D6E3"/>
<path d="M26.4939 23.6383L25.864 23.2013C25.5813 23.0077 25.5119 22.6203 25.7053 22.3373L27.8577 19.2037C28.0512 18.9207 28.438 18.8511 28.7207 19.0448L29.3506 19.4818C29.6333 19.6755 29.7027 20.0628 29.5093 20.3459L27.3568 23.4794C27.1584 23.7625 26.7716 23.832 26.4939 23.6383Z" fill="#01D6E3"/>
<path d="M22.333 17.9972L21.7031 17.5602C21.4204 17.3665 21.351 16.9791 21.5444 16.6961L22.5115 15.2857C22.7049 15.0027 23.0918 14.9332 23.3745 15.1268L24.0043 15.5638C24.287 15.7575 24.3565 16.1449 24.163 16.4279L23.1959 17.8383C23.0025 18.1213 22.6157 18.1908 22.333 17.9972Z" fill="#01D6E3"/>
<path d="M19.4961 16.0404L18.8662 15.6034C18.5835 15.4097 18.5141 15.0224 18.7075 14.7393L19.6746 13.329C19.868 13.0459 20.2549 12.9764 20.5376 13.17L21.1674 13.6071C21.4501 13.8007 21.5196 14.1881 21.3261 14.4711L20.359 15.8815C20.1656 16.1645 19.7788 16.2341 19.4961 16.0404Z" fill="#01D6E3"/>
</svg>
