<svg width="44" height="46" viewBox="0 0 44 46" fill="none" xmlns="http://www.w3.org/2000/svg">
<g clip-path="url(#clip0)">
<path d="M20.7392 0L7.10812 30.2013L14.8675 34.8762L4.57423 45.7266L9.71834 35.8931L0 30.5617L20.7392 0Z" fill="#01D6E3"/>
<path d="M23.2324 0L36.8635 30.2013L29.1092 34.8762L39.4025 45.7266L34.2584 35.8931L43.9768 30.5617L23.2324 0Z" fill="#01D6E3"/>
<path d="M22.4029 29.7274C18.5512 29.5496 15.6459 27.9009 13.7887 24.5984C13.7226 24.4848 13.7124 24.2775 13.7735 24.164C15.2643 21.4291 17.5896 19.7359 20.7137 19.1781C24.8961 18.4278 29.1193 20.4863 31.0324 24.1491C31.0935 24.2676 31.0935 24.475 31.0273 24.5934C29.4653 27.3924 27.0789 29.0856 23.8225 29.5941C23.3544 29.6632 22.871 29.6829 22.4029 29.7274ZM22.3978 19.9038C19.8436 19.9087 17.8083 21.8932 17.8033 24.3713C17.7982 26.8494 19.869 28.8339 22.4436 28.824C24.9877 28.8141 27.0077 26.8198 26.9975 24.3219C26.9873 21.8734 24.9368 19.8988 22.3978 19.9038Z" fill="#01D6E3"/>
<path d="M19.5128 23.7839C20.4744 24.3318 21.2071 24.3318 21.8533 23.7938C22.5046 23.2508 22.5962 22.5597 22.1535 21.5131C23.2067 21.3058 24.5042 21.992 25.0639 23.0582C25.6694 24.2183 25.4048 25.6252 24.4075 26.5039C23.4052 27.3875 21.95 27.5159 20.8102 26.81C19.757 26.1633 19.1769 24.8354 19.5128 23.7839Z" fill="#01D6E3"/>
</g>
<defs>
<clipPath id="clip0">
<rect width="43.9767" height="46" fill="white"/>
</clipPath>
</defs>
</svg>
