<svg width="198" height="42" viewBox="0 0 198 42" fill="none" xmlns="http://www.w3.org/2000/svg">
<path fill-rule="evenodd" clip-rule="evenodd" d="M9.17861 13.7917C4.20219 21.4058 0.0740959 27.7836 0.00514643 27.9646C-0.0847382 28.2005 0.995469 28.9255 3.82149 30.5258C5.98941 31.7537 7.89884 32.8833 8.06472 33.0361C8.31117 33.2635 7.96665 34.1185 6.17601 37.7217C4.97133 40.146 4.08067 42.0702 4.19673 41.998C4.46979 41.828 12.979 32.4886 13.0532 32.2775C13.0842 32.1894 11.6205 31.1981 9.80098 30.0743C7.98121 28.9507 6.44999 27.9621 6.39811 27.8775C6.34622 27.793 9.00999 21.4977 12.3175 13.8882C15.625 6.27862 18.3077 0.0289809 18.279 0.000100387C18.2504 -0.0287801 14.155 6.17754 9.17861 13.7917ZM26.659 13.6817C29.9709 21.2951 32.6779 27.6293 32.6747 27.7579C32.6713 27.8865 31.1865 28.9046 29.3751 30.0207C27.5635 31.1365 26.0815 32.1525 26.0815 32.2786C26.0815 32.4617 32.2455 39.3351 34.6728 41.8589C35.0158 42.2153 34.3572 40.6803 32.9316 37.7994L30.6392 33.1668L34.6751 30.8662C36.8947 29.601 38.8444 28.4785 39.0078 28.372C39.2281 28.2282 36.9482 24.5755 30.1731 14.2178C25.1508 6.53946 20.9505 0.163298 20.8395 0.0482343C20.7284 -0.0666 23.3472 6.06844 26.659 13.6817ZM18.1156 16.8464C14.8272 17.9324 13.1804 21.3542 14.4807 24.3986C16.0617 28.1008 20.7724 29.0639 23.5608 26.255C25.0356 24.7697 25.5374 22.6284 24.907 20.5098C24.563 19.3528 23.313 17.8987 22.1482 17.3002C21.1421 16.7831 19.0272 16.5452 18.1156 16.8464ZM51.3934 23.0064L51.454 29.1377H52.7055H53.9571L54.0709 24.8252L54.1846 20.5123L56.7929 22.578C58.3307 23.7958 59.4981 24.568 59.6373 24.4593C59.7673 24.3583 60.9487 23.4247 62.2629 22.385L64.6522 20.4947L64.766 24.8162L64.8798 29.1377H66.1313H67.3829L67.4434 23.0064L67.5042 16.875H66.1912H64.8782L62.3757 18.9555C60.9995 20.0998 59.7461 21.0904 59.5902 21.1571C59.4344 21.2238 58.1332 20.2875 56.6989 19.0766L54.0911 16.875H52.7119H51.3327L51.3934 23.0064ZM163.07 23.0756V29.2764L164.265 29.207L165.46 29.1377L165.521 24.8401C165.556 22.4764 165.639 20.5424 165.706 20.5424C165.773 20.5424 166.872 21.3849 168.147 22.4148C169.422 23.4446 170.58 24.3738 170.719 24.48C170.879 24.6014 171.929 23.9017 173.564 22.5839L176.155 20.4954L176.268 24.8164L176.382 29.1377H177.634H178.885L178.946 23.0064L179.007 16.875H177.719H176.431L173.765 19.0525C172.299 20.2501 171.029 21.23 170.943 21.23C170.857 21.23 169.626 20.2501 168.208 19.0525L165.628 16.875H164.349H163.07V23.0756ZM185.929 17.4377C185.571 17.798 185.371 18.2852 185.371 18.793V23.6298V29.2597L191.685 29.1987L198 29.1377V27.9917V26.8456L193.164 26.7838L188.329 26.7219V25.2366V23.7513H193.108H197.886V22.7199V21.6884H193.108H188.329V20.3132V18.9379H193.108H197.886V17.9064V16.875H192.187H187.28C186.773 16.875 186.287 17.0776 185.929 17.4377ZM75.3721 22.7946C73.4275 25.9244 71.7704 28.6578 71.6901 28.8687C71.5626 29.2033 71.7344 29.2523 73.0336 29.2523H74.5229L75.3658 27.8771L76.2084 26.5018H80.4576H84.7065L85.6047 27.8198L86.5028 29.1377L87.9412 29.2065C89.061 29.2599 89.363 29.2065 89.304 28.9647C89.2624 28.7942 87.5912 26.0556 85.5905 22.8794L81.9528 17.1042H80.4303H78.9079L75.3721 22.7946ZM93.7186 23.121L93.7794 29.1377H95.0309H96.2825L96.3433 23.121L96.4038 17.1042H95.0309H93.6581L93.7186 23.121ZM102.366 23.121L102.426 29.1377H103.678H104.93L105.043 25.0463L105.157 20.9549L109.665 25.1151L114.173 29.2753L115.354 29.2065L116.535 29.1377L116.596 23.121L116.656 17.1042H115.287H113.918V21.2444V25.3849L109.389 21.2444L104.86 17.1042H103.582H102.305L102.366 23.121ZM124.163 17.3985C123.143 17.9184 123.027 18.5072 123.027 23.1783C123.027 28.0522 123.137 28.5189 124.392 28.953C125.397 29.3007 134.392 29.347 135.595 29.0105C136.914 28.6417 137.153 28.0648 137.297 24.9051L137.423 22.1468H133.408H129.392V23.1783V24.2097H131.895H134.398V25.4704V26.731H130.188H125.979V23.0637V19.3963H130.188C133.779 19.3963 134.398 19.447 134.398 19.7401C134.398 20.0076 134.701 20.0839 135.763 20.0839C137.124 20.0839 137.129 20.0817 137.129 19.4071C137.129 18.374 136.684 17.611 135.926 17.3449C134.904 16.9862 124.882 17.032 124.163 17.3985ZM148.108 17.3907C147.555 18.0894 140.997 28.8159 140.997 29.0222C140.997 29.1522 141.627 29.2523 142.444 29.2523H143.891L144.733 27.8771L145.576 26.5018L149.829 26.5039L154.082 26.5057L154.96 27.8792L155.838 29.2523H157.293C158.092 29.2523 158.747 29.1856 158.747 29.1043C158.747 29.0229 157.083 26.2935 155.049 23.0392L151.351 17.1221L149.843 17.1132C148.899 17.1077 148.25 17.2115 148.108 17.3907ZM81.9763 22.0703L83.2051 24.0951L80.5543 24.16C79.0963 24.1955 77.8605 24.1815 77.8079 24.1286C77.7553 24.0756 78.3065 23.0485 79.0328 21.8459C79.7644 20.635 80.4414 19.7456 80.5506 19.8524C80.659 19.9586 81.3004 20.9565 81.9763 22.0703ZM150.914 21.4019C151.514 22.3788 152.15 23.4102 152.329 23.694L152.655 24.2097H149.804H146.954L148.334 21.9176C149.094 20.657 149.74 19.6255 149.77 19.6255C149.8 19.6255 150.315 20.425 150.914 21.4019Z" fill="white"/>
</svg>
