<svg width="116" height="63" viewBox="0 0 116 63" fill="none" xmlns="http://www.w3.org/2000/svg">
<path d="M57.0659 37.4341C60.3432 23.3145 51.5538 9.21145 37.4341 5.93412C23.3145 2.65678 9.21147 11.4462 5.93414 25.5658C2.6568 39.6855 11.4462 53.7885 25.5659 57.0659C39.6855 60.3432 53.7885 51.5538 57.0659 37.4341Z" fill="#47CCEB"/>
<path d="M32.5789 55.885C18.0998 55.885 6.33331 44.1538 6.33331 29.6394C6.33331 25.2005 7.42541 21.0435 9.36301 17.3797C6.75606 21.4663 5.24121 26.2926 5.24121 31.5065C5.24121 45.9857 16.9725 57.7522 31.4868 57.7522C41.5623 57.7522 50.2991 52.0803 54.6675 43.7662C50.0173 51.0234 41.8794 55.885 32.5789 55.885Z" fill="#79008C"/>
<path d="M34.1292 19.9162C34.1292 19.2468 34.0939 18.5422 34.0939 17.8729C33.8473 17.8376 33.5655 17.8376 33.3189 17.8024C33.3189 16.6751 33.3189 15.5478 33.3189 14.3852C32.0859 14.4557 30.8529 14.4909 29.6551 14.5613V17.7672C29.3732 17.7672 29.1266 17.7672 28.8448 17.7672C28.8448 18.4718 28.8448 19.1763 28.8096 19.8809C30.6063 19.9162 32.3677 19.9162 34.1292 19.9162Z" fill="white"/>
<path d="M58.0142 48.9801C57.7324 49.262 57.4858 49.3324 57.2744 49.3324C52.6594 49.3324 44.4158 43.1673 41.1395 40.5604C40.294 41.4059 39.1315 41.9343 37.8632 41.9343C35.7142 41.9343 33.8823 40.4547 33.4244 38.4466H29.5492C29.056 40.4547 27.2593 41.9343 25.1103 41.9343C23.8421 41.9343 22.6795 41.4059 21.834 40.5604C18.5929 43.1673 10.3493 49.3324 5.66388 49.3324C5.48774 49.3324 5.17068 49.262 4.88884 48.9449C3.83197 47.7823 3.6206 43.9424 3.79674 41.7229V41.6877C4.04335 34.5715 9.04587 19.2116 13.5904 19.2116H28.4218V18.3309C28.6684 18.3309 28.8798 18.3309 29.1264 18.3309C30.6413 18.3661 32.1913 18.4013 33.7062 18.4366C33.9528 18.4366 34.1642 18.4366 34.4108 18.4366V19.1764H49.2422C53.7163 19.1764 58.6131 33.9726 59.0359 41.2297C59.0711 41.265 59.0711 41.3002 59.0711 41.3354C59.3529 43.8719 59.0711 47.8528 58.0142 48.9801Z" fill="#E788FF"/>
<path d="M59.1417 42.2161C59.1417 43.3434 59.0008 44.1889 58.7542 44.8231C58.6485 45.1049 58.5076 45.3163 58.3314 45.4924C57.9791 45.8799 57.5916 45.9504 57.2745 45.9504C52.9766 45.9504 45.966 40.9479 42.3727 38.1295C42.1965 37.9886 42.0204 37.8477 41.8442 37.7068C41.7385 37.6011 41.5976 37.5306 41.4919 37.425C41.351 37.3193 41.3158 37.0727 41.4215 36.9318C41.5272 36.7908 41.7738 36.7556 41.9147 36.8613C41.9851 36.8965 42.0556 36.967 42.1261 37.0374C42.2317 37.1079 42.3022 37.1784 42.4079 37.284C45.3319 39.5739 52.9414 45.2458 57.2393 45.2458C57.4507 45.2458 57.803 45.1753 58.0496 44.5412C58.261 44.0128 58.3666 43.2377 58.3666 42.2161C58.3666 35.2055 53.1527 19.9161 49.2423 19.9161H13.661C9.71535 19.9161 4.53668 35.2408 4.53668 42.2161C4.53668 43.2377 4.64237 44.0128 4.85375 44.5412C5.10035 45.1753 5.45264 45.2458 5.66401 45.2458C9.96196 45.2458 17.5714 39.6092 20.4954 37.284C20.6011 37.2136 20.7068 37.1079 20.7773 37.0374C20.8477 36.967 20.9182 36.9317 20.9886 36.8613C21.1296 36.7556 21.3762 36.7556 21.4818 36.9318L21.5171 36.967C21.5875 37.1079 21.5523 37.3193 21.4114 37.425C21.3057 37.4954 21.2 37.6011 21.0591 37.7068C20.883 37.8477 20.7068 37.9886 20.5307 38.1295C16.9373 40.9126 9.92673 45.9504 5.62878 45.9504C5.31172 45.9504 4.88898 45.8447 4.53668 45.4219C4.39577 45.281 4.29008 45.0697 4.18439 44.8231C3.93779 44.1889 3.79688 43.3434 3.79688 42.2161C3.79688 42.04 3.79688 41.8638 3.79688 41.6877C4.04348 34.5714 9.046 19.2115 13.5905 19.2115H49.2775C53.7516 19.2115 58.6485 34.0077 59.0712 41.2649C59.1417 41.6172 59.1417 41.9343 59.1417 42.2161Z" fill="#79008C"/>
<path d="M21.9045 40.5252C21.8692 40.5252 21.8692 40.5604 21.834 40.5604C18.5929 43.1674 10.3493 49.3325 5.66388 49.3325C5.48774 49.3325 5.17068 49.262 4.88884 48.9449C3.83197 47.7824 3.6206 43.9424 3.79674 41.723V41.6878C3.83197 41.5116 3.97289 41.4059 4.14903 41.4059C4.32518 41.4059 4.50132 41.5821 4.4661 41.7934C4.36041 42.9208 4.39564 44.2595 4.50132 45.4573C4.64224 46.8664 4.92407 48.029 5.34682 48.487C5.48774 48.6279 5.5582 48.6279 5.59342 48.6279C10.138 48.6279 18.7691 42.04 21.3056 40.032C21.3408 39.9968 21.3408 39.9968 21.376 39.9615C21.5169 39.8558 21.7635 39.8558 21.8692 40.032C22.0806 40.1729 22.0454 40.3843 21.9045 40.5252Z" fill="#79008C"/>
<path d="M58.0142 48.9801C57.7324 49.262 57.4858 49.3324 57.2744 49.3324C52.6594 49.3324 44.4158 43.1673 41.1395 40.5604C41.1043 40.5252 41.0691 40.4899 40.9986 40.4547C40.8577 40.349 40.8225 40.1024 40.9282 39.9615C41.0691 39.8206 41.2804 39.7854 41.4214 39.891C41.4566 39.9263 41.527 39.9615 41.5623 39.9967C44.1692 42.0752 52.7299 48.6278 57.2392 48.6278C57.3097 48.6278 57.3801 48.5926 57.4506 48.4869C57.8381 48.0642 58.1551 46.8664 58.2961 45.4925C58.437 44.189 58.4722 42.6741 58.4018 41.4411C58.4018 41.2297 58.5427 41.0888 58.7188 41.0536C58.8597 41.0536 59.0006 41.1241 59.0711 41.265C59.1063 41.3002 59.1063 41.3354 59.1063 41.3707C59.3529 43.8719 59.0711 47.8528 58.0142 48.9801Z" fill="#79008C"/>
<path d="M29.5843 36.4033C29.5843 36.3681 29.5843 36.3329 29.549 36.3329C29.5138 36.1567 29.3729 36.051 29.1968 36.051C29.0206 36.051 28.8797 36.1567 28.8445 36.3329C28.4217 38.0943 26.8716 39.3273 25.075 39.3273C23.4897 39.3273 22.151 38.4114 21.5168 37.0022C21.4111 36.7908 21.3407 36.5442 21.3055 36.2976C21.2702 36.1215 21.1293 36.0158 20.9532 36.0158C20.777 36.0158 20.6361 36.1215 20.6009 36.2976C20.6009 36.3329 20.6009 36.3681 20.5656 36.3681C20.4952 36.6852 20.46 36.967 20.46 37.2488V37.3545C20.46 37.6363 20.4952 37.8829 20.5304 38.1648C20.6361 38.8694 20.9179 39.5035 21.3055 40.0319C21.4464 40.2433 21.5873 40.4194 21.7634 40.5604C22.6089 41.4059 23.7715 41.9343 25.0397 41.9343C27.1887 41.9343 29.0206 40.4547 29.4786 38.4466C29.549 38.2352 29.5843 37.9886 29.5843 37.742C29.5843 37.6011 29.5843 37.4954 29.5843 37.3545C29.69 37.0375 29.6547 36.7204 29.5843 36.4033ZM25.1102 41.2297C23.1726 41.2297 21.5873 39.8205 21.2702 37.9886C21.3055 38.0239 21.3407 38.0943 21.3759 38.1295C21.4111 38.1648 21.4464 38.2352 21.4816 38.2705C21.5168 38.3057 21.5521 38.3762 21.5873 38.4114C21.6225 38.4466 21.6577 38.4818 21.693 38.5171C21.7987 38.6228 21.9044 38.7637 22.01 38.8694C22.0805 38.9398 22.151 38.975 22.2214 39.0455L22.2566 39.0807C22.3271 39.116 22.3623 39.1864 22.4328 39.2217C22.6442 39.3626 22.8555 39.5035 23.0669 39.6092C23.1021 39.6444 23.1726 39.6444 23.2078 39.6796C23.2783 39.7149 23.3487 39.7501 23.4192 39.7501C23.5249 39.7853 23.5953 39.8205 23.701 39.8558C23.7715 39.891 23.8772 39.9262 23.9476 39.9262C24.0181 39.9262 24.0885 39.9615 24.1238 39.9615C24.1942 39.9615 24.2295 39.9967 24.2999 39.9967C24.3704 39.9967 24.4408 40.0319 24.5113 40.0319C24.5465 40.0319 24.5818 40.0319 24.617 40.0319C24.6874 40.0319 24.7227 40.0319 24.7931 40.0319C24.8988 40.0319 25.0045 40.0319 25.075 40.0319C25.1454 40.0319 25.2863 40.0319 25.3568 40.0319C25.4273 40.0319 25.4625 40.0319 25.5329 40.0319C25.5682 40.0319 25.6034 40.0319 25.6386 40.0319C25.7091 40.0319 25.7795 39.9967 25.85 39.9967C25.9205 39.9967 25.9557 39.9615 26.0261 39.9615C26.0966 39.9615 26.1671 39.9262 26.2023 39.9262C26.2728 39.891 26.3784 39.891 26.4489 39.8558C26.5546 39.8205 26.625 39.7853 26.7307 39.7501C26.8012 39.7149 26.8716 39.7149 26.9421 39.6796C27.0126 39.6444 27.0478 39.6444 27.083 39.6092C27.2944 39.5035 27.5058 39.3626 27.7171 39.2217C27.7876 39.1864 27.8228 39.116 27.8933 39.0807C27.9285 39.0807 27.9285 39.0455 27.9285 39.0455C27.999 38.975 28.0694 38.9398 28.1399 38.8694C28.2456 38.7637 28.3513 38.658 28.4569 38.5171C28.4922 38.4818 28.5274 38.4466 28.5626 38.4114C28.5979 38.3762 28.6331 38.3057 28.6683 38.2705C28.7036 38.2352 28.7388 38.2 28.774 38.1295C28.8092 38.0943 28.8445 38.0591 28.8797 37.9886C28.6331 39.8205 27.0126 41.2297 25.1102 41.2297Z" fill="#79008C"/>
<path d="M29.6547 35.0999C29.4785 32.7396 27.5057 30.8724 25.0749 30.8724C22.5384 30.8724 20.4951 32.9157 20.4951 35.4522C20.4951 35.7693 20.5303 36.0863 20.6008 36.4034C20.6008 36.4386 20.6008 36.4386 20.636 36.4739C20.6713 36.6852 20.7417 36.8614 20.8122 37.0727C20.8826 37.3193 20.9883 37.5307 21.1292 37.7421C21.1645 37.8126 21.2349 37.9182 21.2702 37.9887C21.3054 38.0239 21.3406 38.0944 21.3758 38.1296C21.4111 38.1648 21.4463 38.2353 21.4815 38.2705C21.5168 38.3058 21.552 38.3762 21.5872 38.4114C21.6224 38.4467 21.6577 38.4819 21.6929 38.5171C21.7986 38.6228 21.9043 38.7637 22.01 38.8694C22.0804 38.9399 22.1509 38.9751 22.2213 39.0456L22.2566 39.0808C22.327 39.116 22.3623 39.1865 22.4327 39.2217C22.6441 39.3626 22.8555 39.5035 23.0668 39.6092C23.1021 39.6445 23.1725 39.6445 23.2078 39.6797C23.2782 39.7149 23.3487 39.7502 23.4191 39.7502C23.5248 39.7854 23.5953 39.8206 23.701 39.8558C23.7714 39.8911 23.8771 39.9263 23.9476 39.9263C24.018 39.9263 24.0885 39.9615 24.1237 39.9615C24.1942 39.9615 24.2294 39.9968 24.2999 39.9968C24.3703 39.9968 24.4408 40.032 24.5112 40.032C24.5465 40.032 24.5817 40.032 24.6169 40.032C24.6874 40.032 24.7226 40.032 24.7931 40.032C24.8987 40.032 25.0044 40.032 25.0749 40.032C25.1453 40.032 25.2863 40.032 25.3567 40.032C25.4272 40.032 25.4624 40.032 25.5329 40.032C25.5681 40.032 25.6033 40.032 25.6386 40.032C25.709 40.032 25.7795 39.9968 25.8499 39.9968C25.9204 39.9968 25.9556 39.9615 26.0261 39.9615C26.0965 39.9615 26.167 39.9263 26.2022 39.9263C26.2727 39.8911 26.3784 39.8911 26.4488 39.8558C26.5545 39.8206 26.625 39.7854 26.7307 39.7502C26.8011 39.7149 26.8716 39.7149 26.942 39.6797C27.0125 39.6445 27.0477 39.6445 27.0829 39.6092C27.2943 39.5035 27.5057 39.3626 27.7171 39.2217C27.7875 39.1865 27.8228 39.116 27.8932 39.0808C27.9284 39.0808 27.9284 39.0456 27.9284 39.0456C27.9989 38.9751 28.0694 38.9399 28.1398 38.8694C28.2455 38.7637 28.3512 38.6581 28.4569 38.5171C28.4921 38.4819 28.5273 38.4467 28.5626 38.4114C28.5978 38.3762 28.633 38.3058 28.6683 38.2705C28.7035 38.2353 28.7387 38.2001 28.7739 38.1296C28.8092 38.0944 28.8444 38.0592 28.8796 37.9887C29.1615 37.5307 29.3728 37.0375 29.5137 36.5091C29.5137 36.4739 29.5137 36.4386 29.549 36.4386C29.5842 36.2273 29.6194 36.0511 29.6194 35.8397C29.6194 35.734 29.6194 35.5931 29.6194 35.4874C29.6899 35.3465 29.6899 35.2408 29.6547 35.0999ZM25.1101 39.3274C23.5248 39.3274 22.1861 38.4114 21.552 37.0023C21.4463 36.7909 21.3758 36.5443 21.3406 36.2977C21.2702 36.0159 21.2349 35.6988 21.2349 35.417C21.2349 33.268 22.9611 31.5418 25.1101 31.5418C27.2591 31.5418 28.9853 33.268 28.9853 35.417C28.9853 35.6988 28.9501 35.9806 28.8796 36.2977C28.4569 38.0944 26.9068 39.3274 25.1101 39.3274Z" fill="#79008C"/>
<path d="M42.3727 36.4034C42.3727 36.3681 42.3727 36.3329 42.3727 36.3329C42.3375 36.1568 42.1966 36.0511 42.0204 36.0511C41.8443 36.0511 41.7034 36.1568 41.6681 36.3329C41.2454 38.0944 39.6953 39.3274 37.8986 39.3274C36.1019 39.3274 34.5519 38.0944 34.1291 36.3329C34.0939 36.1568 33.953 36.0511 33.7768 36.0511C33.6007 36.0511 33.4598 36.1568 33.4245 36.3329C33.4245 36.3681 33.4245 36.4034 33.4245 36.4034C33.3541 36.7204 33.3188 37.0375 33.3188 37.3546C33.3188 37.4955 33.3188 37.6012 33.3541 37.7421C33.3541 37.9887 33.4245 38.2353 33.4598 38.4467C33.953 40.4547 35.7497 41.9343 37.8986 41.9343C39.2021 41.9343 40.3647 41.4059 41.1749 40.5604C41.3511 40.3843 41.492 40.2081 41.6329 39.9967C42.0204 39.4683 42.3022 38.8342 42.4079 38.1296C42.4432 37.883 42.4784 37.6012 42.4784 37.3193V37.2489C42.4432 37.0023 42.4079 36.7204 42.3727 36.4034ZM37.8986 41.2298C35.961 41.2298 34.3757 39.8206 34.0587 37.9887C34.0939 38.0239 34.0939 38.0591 34.1291 38.0944C34.1643 38.1296 34.1996 38.2001 34.2348 38.2353C34.27 38.2705 34.3053 38.341 34.3405 38.3762C34.3757 38.4114 34.4109 38.4467 34.4462 38.4819C34.5519 38.5876 34.6576 38.6933 34.728 38.7989C34.7632 38.8342 34.7985 38.8694 34.8337 38.9046C35.0098 39.0456 35.186 39.1865 35.3621 39.3274C35.3974 39.3626 35.4326 39.3626 35.4678 39.3978C35.5735 39.4683 35.6792 39.5388 35.8201 39.574C35.8553 39.6092 35.9258 39.6092 35.961 39.6444C36.0315 39.6797 36.1019 39.7149 36.1724 39.7149C36.2781 39.7501 36.3485 39.7854 36.4542 39.8206C36.5247 39.8558 36.6304 39.891 36.7008 39.891C36.7713 39.891 36.8418 39.9263 36.877 39.9263C36.9474 39.9263 36.9827 39.9615 37.0531 39.9615C37.1236 39.9615 37.194 39.9967 37.2645 39.9967C37.2997 39.9967 37.335 39.9967 37.3702 39.9967C37.4406 39.9967 37.4759 39.9967 37.5463 39.9967C37.652 39.9967 37.7577 39.9967 37.8282 39.9967C37.9338 39.9967 38.0395 39.9967 38.11 39.9967C38.1805 39.9967 38.2157 39.9967 38.2861 39.9967C38.3214 39.9967 38.3566 39.9967 38.3918 39.9967C38.4623 39.9967 38.5327 39.9615 38.6032 39.9615C38.6737 39.9615 38.7089 39.9263 38.7793 39.9263C38.8498 39.9263 38.9203 39.891 38.9555 39.891C39.026 39.8558 39.1316 39.8558 39.2021 39.8206C39.3078 39.7854 39.3782 39.7501 39.4839 39.7149C39.5544 39.6797 39.6248 39.6797 39.6953 39.6444C39.7305 39.6092 39.801 39.6092 39.8362 39.574C39.9419 39.5035 40.0828 39.4683 40.1885 39.3978C40.2237 39.3626 40.259 39.3626 40.2942 39.3274C40.4351 39.2217 40.576 39.1512 40.7169 39.0456C40.7874 38.9751 40.8579 38.9399 40.9283 38.8694C41.034 38.7637 41.1397 38.658 41.2454 38.5171C41.2806 38.4819 41.3158 38.4467 41.3511 38.4114C41.3863 38.3762 41.4215 38.3057 41.4568 38.2705C41.492 38.2353 41.5272 38.2001 41.5624 38.1296C41.5977 38.0944 41.6329 38.0591 41.6681 37.9887C41.4215 39.8206 39.801 41.2298 37.8986 41.2298Z" fill="#79008C"/>
<path d="M37.8986 30.8724C35.503 30.8724 33.5302 32.7396 33.3541 35.0999C33.3541 35.2056 33.3188 35.3465 33.3188 35.4522C33.3188 35.5579 33.3188 35.6988 33.3541 35.8045C33.3541 36.0159 33.3893 36.192 33.4245 36.4034C33.4245 36.4386 33.4245 36.4386 33.4245 36.4739C33.5654 37.0727 33.8121 37.6012 34.1291 38.0592C34.1643 38.0944 34.1996 38.1648 34.2348 38.2001C34.27 38.2353 34.3053 38.3058 34.3405 38.341C34.3757 38.3762 34.4109 38.4114 34.4462 38.4467C34.5519 38.5524 34.6576 38.6581 34.728 38.7637C34.7632 38.799 34.7985 38.8342 34.8337 38.8694C35.0098 39.0103 35.186 39.1513 35.3621 39.2922C35.3974 39.3274 35.4326 39.3274 35.4678 39.3626C35.5735 39.4331 35.6792 39.5035 35.8201 39.5388C35.8553 39.574 35.9258 39.574 35.961 39.6092C36.0315 39.6445 36.1019 39.6797 36.1724 39.6797C36.2781 39.7149 36.3485 39.7502 36.4542 39.7854C36.5247 39.8206 36.6304 39.8558 36.7008 39.8558C36.7713 39.8558 36.8417 39.8911 36.877 39.8911C36.9474 39.8911 36.9827 39.9263 37.0531 39.9263C37.1236 39.9263 37.194 39.9615 37.2645 39.9615C37.2997 39.9615 37.335 39.9615 37.3702 39.9615C37.4406 39.9615 37.4759 39.9615 37.5463 39.9615C37.652 39.9615 37.7577 39.9615 37.8282 39.9615C37.9338 39.9615 38.0395 39.9615 38.11 39.9615C38.1805 39.9615 38.2157 39.9615 38.2861 39.9615C38.3214 39.9615 38.3566 39.9615 38.3918 39.9615C38.4623 39.9615 38.5327 39.9263 38.6032 39.9263C38.6737 39.9263 38.7089 39.8911 38.7793 39.8911C38.8498 39.8911 38.9203 39.8558 38.9555 39.8558C39.0259 39.8206 39.1316 39.8206 39.2021 39.7854C39.3078 39.7502 39.3782 39.7149 39.4839 39.6797C39.5544 39.6445 39.6248 39.6445 39.6953 39.6092C39.7305 39.574 39.801 39.574 39.8362 39.5388C39.9419 39.4683 40.0828 39.4331 40.1885 39.3626C40.2237 39.3274 40.259 39.3274 40.2942 39.2922C40.4351 39.1865 40.576 39.116 40.7169 39.0103C40.7874 38.9399 40.8579 38.9047 40.9283 38.8342C41.034 38.7285 41.1397 38.6228 41.2454 38.4819C41.2806 38.4467 41.3158 38.4115 41.3511 38.3762C41.3863 38.341 41.4215 38.2705 41.4568 38.2353C41.492 38.2001 41.5272 38.1648 41.5624 38.0944C41.5977 38.0592 41.6329 38.0239 41.6681 37.9535C41.7034 37.883 41.7738 37.7773 41.809 37.7069C41.9147 37.4955 42.0204 37.2841 42.1261 37.0375C42.1966 36.8614 42.267 36.65 42.3022 36.4386C42.3022 36.4034 42.3022 36.3682 42.3022 36.3682C42.3727 36.0511 42.4079 35.734 42.4079 35.417C42.4784 32.9509 40.3999 30.8724 37.8986 30.8724ZM37.8986 39.3274C36.1019 39.3274 34.5519 38.0944 34.1291 36.3329C34.0587 36.0511 34.0234 35.734 34.0234 35.4522C34.0234 33.3032 35.7497 31.577 37.8986 31.577C40.0476 31.577 41.7738 33.3032 41.7738 35.4522C41.7738 35.734 41.7386 36.0159 41.6681 36.3329C41.2454 38.0944 39.6953 39.3274 37.8986 39.3274Z" fill="#79008C"/>
<path d="M33.6708 35.8046H29.3376C29.1263 35.8046 28.9854 35.6636 28.9854 35.4523C28.9854 35.2409 29.1263 35.1 29.3376 35.1H33.6708C33.8822 35.1 34.0231 35.2409 34.0231 35.4523C34.0231 35.6636 33.847 35.8046 33.6708 35.8046Z" fill="#79008C"/>
<path d="M34.0231 38.0944C34.0231 38.2706 33.8822 38.4467 33.6708 38.4467H29.3376C29.1615 38.4467 28.9854 38.2706 28.9854 38.0944C28.9854 37.9183 29.1615 37.7421 29.3376 37.7421H33.6708C33.847 37.7421 34.0231 37.883 34.0231 38.0944Z" fill="#79008C"/>
<path d="M20.1077 25.3062H18.3463V23.5447C18.3463 23.3686 18.2054 23.1924 17.994 23.1924H14.8586C14.6825 23.1924 14.5063 23.3686 14.5063 23.5447V25.3062H12.7449C12.5687 25.3062 12.3926 25.4823 12.3926 25.6585V28.7939C12.3926 28.97 12.5687 29.1461 12.7449 29.1461H14.5063V30.9076C14.5063 31.119 14.6825 31.2599 14.8586 31.2599H17.994C18.2054 31.2599 18.3463 31.119 18.3463 30.9076V29.1461H20.1077C20.2839 29.1461 20.46 28.97 20.46 28.7939V25.6585C20.46 25.4471 20.3191 25.3062 20.1077 25.3062ZM19.7554 28.4416H17.994C17.8178 28.4416 17.6417 28.6177 17.6417 28.7939V30.5553H15.2109V28.7939C15.2109 28.6177 15.0348 28.4416 14.8586 28.4416H13.0972V26.0108H14.8586C15.0348 26.0108 15.2109 25.8698 15.2109 25.6585V23.897H17.6417V25.6585C17.6417 25.8698 17.8178 26.0108 17.994 26.0108H19.7554V28.4416Z" fill="#79008C"/>
<path d="M45.543 24.5312C45.543 23.8619 46.0714 23.3334 46.7408 23.3334C47.4101 23.3334 47.9385 23.8619 47.9385 24.5312C47.9385 25.2006 47.4101 25.729 46.7408 25.729C46.1066 25.729 45.543 25.2006 45.543 24.5312Z" fill="white"/>
<path d="M45.543 30.203C45.543 29.5337 46.0714 29.0052 46.7408 29.0052C47.4101 29.0052 47.9385 29.5337 47.9385 30.203C47.9385 30.8724 47.4101 31.4008 46.7408 31.4008C46.1066 31.4008 45.543 30.8724 45.543 30.203Z" fill="white"/>
<path d="M42.478 27.3847C42.478 26.7154 43.0065 26.187 43.6758 26.187C44.3452 26.187 44.8736 26.7154 44.8736 27.3847C44.8736 28.0541 44.3452 28.5825 43.6758 28.5825C43.0065 28.5825 42.478 28.0189 42.478 27.3847Z" fill="white"/>
<path d="M48.6431 27.3847C48.6431 26.7154 49.1715 26.187 49.8409 26.187C50.5102 26.187 51.0386 26.7154 51.0386 27.3847C51.0386 28.0541 50.5102 28.5825 49.8409 28.5825C49.2067 28.5825 48.6431 28.0189 48.6431 27.3847Z" fill="white"/>
<path d="M34.1288 17.4501H28.8445C28.6683 17.4501 28.4922 17.5911 28.4922 17.8024V19.5639C28.4922 19.74 28.6683 19.9162 28.8445 19.9162H34.1288C34.3402 19.9162 34.4811 19.74 34.4811 19.5639V17.8024C34.4811 17.6263 34.3402 17.4501 34.1288 17.4501ZM33.7765 19.2116H29.1968V18.1547H33.7765V19.2116Z" fill="#79008C"/>
<path d="M33.3188 15.6887H29.655C29.4437 15.6887 29.3027 15.8296 29.3027 16.041V17.8025C29.3027 17.9786 29.4437 18.1548 29.655 18.1548H33.3188C33.495 18.1548 33.6711 17.9786 33.6711 17.8025V16.041C33.6711 15.8296 33.495 15.6887 33.3188 15.6887ZM30.0073 17.4502V16.3933H32.9666V17.4502H30.0073Z" fill="#79008C"/>
<path d="M33.3188 13.9272H29.655C29.4437 13.9272 29.3027 14.0682 29.3027 14.2795V16.041C29.3027 16.2171 29.4437 16.3933 29.655 16.3933H33.3188C33.495 16.3933 33.6711 16.2171 33.6711 16.041V14.2795C33.6711 14.0682 33.495 13.9272 33.3188 13.9272ZM30.0073 15.6887V14.6318H32.9666V15.6887H30.0073Z" fill="#79008C"/>
<path d="M31.4866 14.6318C31.2752 14.6318 31.1343 14.4909 31.1343 14.2795V7.76215C31.1343 6.45868 32.1911 5.36658 33.5299 5.36658C34.8333 5.36658 35.9254 6.42345 35.9254 7.72692C35.9254 8.64288 36.6652 9.38269 37.6164 9.38269C37.8278 9.38269 37.9687 9.5236 37.9687 9.73498C37.9687 9.94635 37.8278 10.0873 37.6164 10.0873C36.3129 10.0873 35.2208 9.0304 35.2208 7.72692C35.2208 6.81097 34.481 6.07116 33.5299 6.07116C32.6139 6.07116 31.8389 6.81097 31.8389 7.76215V14.2795C31.8389 14.4557 31.6979 14.6318 31.4866 14.6318Z" fill="#79008C"/>
<path d="M46.741 23.0869C45.8955 23.0869 45.1909 23.7914 45.1909 24.6369C45.1909 24.7426 45.1909 24.8835 45.2261 24.9892C45.3671 25.6938 46.0012 26.187 46.741 26.187C46.9171 26.187 47.0933 26.1518 47.2342 26.1165C47.8331 25.9052 48.2911 25.3415 48.2911 24.6369C48.2911 23.7562 47.5865 23.0869 46.741 23.0869ZM46.741 25.4824C46.283 25.4824 45.8955 25.0949 45.8955 24.6369C45.8955 24.4256 45.966 24.2494 46.1069 24.1085C46.2478 23.9324 46.4944 23.7914 46.741 23.7914C47.199 23.7914 47.5865 24.179 47.5865 24.6369C47.5865 24.7426 47.5865 24.8131 47.5513 24.9188C47.4456 25.2358 47.1285 25.4824 46.741 25.4824Z" fill="#79008C"/>
<path d="M46.741 28.7587C45.8955 28.7587 45.1909 29.4632 45.1909 30.3087C45.1909 30.4144 45.1909 30.5553 45.2261 30.661C45.3671 31.3656 46.0012 31.8588 46.741 31.8588C46.9171 31.8588 47.0933 31.8236 47.2342 31.7884C47.8331 31.577 48.2911 31.0133 48.2911 30.3087C48.2911 29.4632 47.5865 28.7587 46.741 28.7587ZM46.741 31.1542C46.283 31.1542 45.8955 30.7667 45.8955 30.3087C45.8955 30.0974 45.966 29.9212 46.1069 29.7803C46.2478 29.6042 46.4944 29.4632 46.741 29.4632C47.199 29.4632 47.5865 29.8508 47.5865 30.3087C47.5865 30.4144 47.5865 30.4849 47.5513 30.5906C47.4456 30.9076 47.1285 31.1542 46.741 31.1542Z" fill="#79008C"/>
<path d="M43.6409 25.9051C42.7954 25.9051 42.0908 26.6097 42.0908 27.4552C42.0908 27.5609 42.0908 27.7018 42.126 27.8075C42.267 28.512 42.9011 29.0052 43.6409 29.0052C43.817 29.0052 43.9932 28.97 44.1341 28.9348C44.733 28.7234 45.191 28.1597 45.191 27.4904C45.191 26.6097 44.4864 25.9051 43.6409 25.9051ZM43.6409 28.3007C43.1829 28.3007 42.7954 27.9131 42.7954 27.4552C42.7954 27.2438 42.8659 27.0676 43.0068 26.9267C43.1477 26.7506 43.3943 26.6097 43.6409 26.6097C44.0989 26.6097 44.4864 26.9972 44.4864 27.4552C44.4864 27.5609 44.4864 27.6313 44.4512 27.737C44.3455 28.0541 44.0284 28.3007 43.6409 28.3007Z" fill="#79008C"/>
<path d="M49.8411 25.9051C48.9956 25.9051 48.291 26.6097 48.291 27.4552C48.291 27.5609 48.291 27.7018 48.3262 27.8075C48.4672 28.512 49.1013 29.0052 49.8411 29.0052C50.0172 29.0052 50.1934 28.97 50.3343 28.9348C50.9332 28.7234 51.3912 28.1597 51.3912 27.4904C51.3912 26.6097 50.6866 25.9051 49.8411 25.9051ZM49.8411 28.3007C49.3831 28.3007 48.9956 27.9131 48.9956 27.4552C48.9956 27.2438 49.0661 27.0676 49.207 26.9267C49.3479 26.7506 49.5945 26.6097 49.8411 26.6097C50.2991 26.6097 50.6866 26.9972 50.6866 27.4552C50.6866 27.5609 50.6866 27.6313 50.6514 27.737C50.5457 28.0541 50.2286 28.3007 49.8411 28.3007Z" fill="#79008C"/>
<path d="M69.2427 18.4253L71.5326 18.4605L70.1586 22.8641C69.5597 23.2869 68.8904 23.6039 68.1506 23.8153C67.4108 24.0267 66.6357 24.1324 65.8607 24.1324C64.7686 24.1324 63.8526 23.921 63.1128 23.5335C62.3378 23.146 61.7741 22.5823 61.4218 21.8777C61.0696 21.1731 60.9286 20.3276 61.0343 19.4117C61.1752 18.1787 61.5628 17.0866 62.2321 16.1002C62.9015 15.1137 63.7822 14.3387 64.8743 13.8103C65.9664 13.2466 67.1642 13 68.5029 13C69.5245 13 70.4052 13.1761 71.1451 13.4932C71.8849 13.8103 72.4133 14.3035 72.8361 14.9024L70.8985 16.3468C70.5814 15.924 70.1939 15.6069 69.7711 15.4308C69.3484 15.2194 68.8199 15.149 68.1858 15.1137C67.3755 15.1137 66.6005 15.2899 65.9664 15.6422C65.297 15.9945 64.7686 16.4877 64.3459 17.1218C63.9231 17.7559 63.6765 18.4605 63.606 19.2708C63.5356 20.1163 63.7117 20.7504 64.2049 21.2436C64.6981 21.7368 65.438 21.9834 66.4596 21.9834C67.0937 21.9834 67.6926 21.8777 68.2915 21.6311L69.2427 18.4253Z" fill="#F5ECF9"/>
<path d="M80.4456 21.7721L75.4079 21.7368L73.7521 24.0267L71.0747 23.9915L79.2126 13.2466L81.6786 13.2819L83.1935 24.0972L80.6922 24.062L80.4456 21.7721ZM80.2343 19.8697L79.7763 15.7127L76.7818 19.8697H80.2343Z" fill="#F5ECF9"/>
<path d="M100.209 13.4932L96.9325 24.2733L94.5721 24.2381L96.5097 17.8264L91.8243 23.0755H90.6969L89.0412 17.7207L87.0684 24.1676L84.708 24.1324L88.0195 13.3523L90.0628 13.3875L92.0709 20.1515L98.0598 13.458L100.209 13.4932Z" fill="#F5ECF9"/>
<path d="M105.035 15.5365L104.331 17.8616L109.333 17.8968L108.734 19.8344L103.697 19.7992L102.922 22.3005L108.805 22.3709L108.171 24.379L99.7861 24.3085L103.098 13.5284L111.271 13.5989L110.637 15.607L105.035 15.5365Z" fill="#F5ECF9"/>
<path d="M78.8955 32.8355L70.8633 39.9166L76.9227 39.987L76.2885 42.0303L66.8472 41.9246L67.3404 40.3041L75.3726 33.2231L69.6655 33.1526L70.2996 31.1093L79.3887 31.1798L78.8955 32.8355Z" fill="#F5ECF9"/>
<path d="M81.0444 41.6412C80.3045 41.2537 79.7409 40.69 79.3886 39.9855C79.0363 39.2809 78.9306 38.4354 79.0011 37.5194C79.142 36.2864 79.5295 35.1943 80.1989 34.2079C80.8682 33.2215 81.7489 32.4817 82.8058 31.918C83.8627 31.3543 85.0605 31.0725 86.3639 31.1077C87.456 31.1077 88.372 31.3191 89.1118 31.7066C89.8516 32.0942 90.4153 32.6578 90.7676 33.3624C91.1199 34.067 91.2255 34.9125 91.1551 35.8284C91.0142 37.0614 90.6267 38.1535 89.9573 39.14C89.2879 40.1264 88.4072 40.8662 87.3504 41.4298C86.2935 41.9935 85.0957 42.2753 83.7922 42.2401C82.7001 42.2401 81.7842 42.064 81.0444 41.6412ZM86.3639 39.5979C86.9981 39.2104 87.5265 38.7172 87.914 38.0831C88.3015 37.449 88.5481 36.7444 88.6186 35.9693C88.6891 35.1591 88.5129 34.4897 88.0549 33.9965C87.597 33.5033 86.8924 33.2567 85.9412 33.2567C85.1309 33.2567 84.4263 33.4329 83.7922 33.8204C83.1581 34.2079 82.6297 34.7011 82.2421 35.3352C81.8546 35.9693 81.608 36.6739 81.5376 37.449C81.4671 38.2592 81.6432 38.9286 82.1012 39.4218C82.5592 39.915 83.2638 40.1616 84.215 40.1616C85.0252 40.1264 85.7298 39.9502 86.3639 39.5979Z" fill="#F5ECF9"/>
<path d="M104.824 31.46L101.513 42.2401L99.4694 42.2049L96.1578 35.4057L94.0793 42.1344L91.6133 42.0992L94.9248 31.3191L97.0033 31.3543L100.315 38.1535L102.358 31.3895L104.824 31.46Z" fill="#F5ECF9"/>
<path d="M109.65 33.5033L108.946 35.8284L113.948 35.8636L113.349 37.8012L108.312 37.766L107.537 40.2673L113.42 40.3377L112.786 42.3458L104.472 42.2753L107.783 31.4952L115.956 31.5657L115.322 33.5738L109.65 33.5033Z" fill="#F5ECF9"/>
<path d="M112.927 27.1973H69.1018C68.8904 27.1973 68.7495 27.0564 68.7495 26.845C68.7495 26.6337 68.8904 26.4927 69.1018 26.4927H112.962C113.173 26.4927 113.314 26.6337 113.314 26.845C113.279 27.0564 113.138 27.1973 112.927 27.1973Z" fill="#F5ECF9"/>
<path d="M110.883 30.1213H91.8245C91.6131 30.1213 91.4722 29.9804 91.4722 29.769C91.4722 29.5577 91.6131 29.4167 91.8245 29.4167H110.883C111.095 29.4167 111.236 29.5577 111.236 29.769C111.236 29.9452 111.06 30.1213 110.883 30.1213Z" fill="#F5ECF9"/>
<path d="M37.8985 50.5303C37.7576 50.5303 37.6167 50.3893 37.6167 50.2484V47.7472C37.6167 47.6062 37.7576 47.4653 37.8985 47.4653C38.0394 47.4653 38.1804 47.6062 38.1804 47.7472V50.2484C38.1804 50.3893 38.0394 50.5303 37.8985 50.5303Z" fill="#79008C"/>
<path d="M39.1317 49.262H36.6305C36.4896 49.262 36.3486 49.1211 36.3486 48.9802C36.3486 48.8393 36.4896 48.6984 36.6305 48.6984H39.1317C39.2726 48.6984 39.4136 48.8393 39.4136 48.9802C39.4136 49.1563 39.2726 49.262 39.1317 49.262Z" fill="#79008C"/>
<path d="M25.1104 7.65648C24.9695 7.65648 24.8286 7.51556 24.8286 7.37465V4.87338C24.8286 4.73247 24.9695 4.59155 25.1104 4.59155C25.2514 4.59155 25.3923 4.73247 25.3923 4.87338V7.37465C25.3923 7.51556 25.2514 7.65648 25.1104 7.65648Z" fill="#79008C"/>
<path d="M26.3436 6.42347H23.8424C23.7015 6.42347 23.5605 6.28255 23.5605 6.14163C23.5605 6.00072 23.7015 5.8598 23.8424 5.8598H26.3436C26.4846 5.8598 26.6255 6.00072 26.6255 6.14163C26.6255 6.28255 26.5198 6.42347 26.3436 6.42347Z" fill="#79008C"/>
<path d="M18.6638 26.4688H17.3603C17.2546 26.4688 17.1841 26.3984 17.1841 26.2927V24.9892C17.1841 24.8835 17.1137 24.813 17.008 24.813H15.9159C15.8102 24.813 15.7397 24.8835 15.7397 24.9892V26.2927C15.7397 26.3984 15.6693 26.4688 15.5636 26.4688H14.2601C14.1544 26.4688 14.084 26.5393 14.084 26.645V27.7371C14.084 27.8427 14.1544 27.9132 14.2601 27.9132H15.5636C15.6693 27.9132 15.7397 27.9837 15.7397 28.0893V29.3928C15.7397 29.4985 15.8102 29.569 15.9159 29.569H17.008C17.1137 29.569 17.1841 29.4985 17.1841 29.3928V28.0893C17.1841 27.9837 17.2546 27.9132 17.3603 27.9132H18.6638C18.7694 27.9132 18.8399 27.8427 18.8399 27.7371V26.645C18.8751 26.5745 18.7694 26.4688 18.6638 26.4688Z" fill="white"/>
<path d="M17.325 15.6183C16.5852 15.6183 15.9863 15.0194 15.9863 14.2796C15.9863 13.5398 16.5852 12.9409 17.325 12.9409C18.0648 12.9409 18.6637 13.5398 18.6637 14.2796C18.6637 15.0194 18.0648 15.6183 17.325 15.6183ZM17.325 13.6454C16.9727 13.6454 16.6909 13.9273 16.6909 14.2796C16.6909 14.6319 16.9727 14.9137 17.325 14.9137C17.6773 14.9137 17.9592 14.6319 17.9592 14.2796C17.9592 13.9273 17.6773 13.6454 17.325 13.6454Z" fill="#79008C"/>
</svg>
