<svg width="22" height="22" viewBox="0 0 22 22" fill="none" xmlns="http://www.w3.org/2000/svg">
<g opacity="0.4">
<path d="M9.06396 9.229C8.43696 9.229 7.94196 9.779 7.94196 10.45C7.94196 11.121 8.44796 11.671 9.06396 11.671C9.69096 11.671 10.186 11.121 10.186 10.45C10.197 9.779 9.69096 9.229 9.06396 9.229ZM13.079 9.229C12.452 9.229 11.957 9.779 11.957 10.45C11.957 11.121 12.463 11.671 13.079 11.671C13.706 11.671 14.201 11.121 14.201 10.45C14.201 9.779 13.706 9.229 13.079 9.229Z" fill="white"/>
<path d="M18.425 0H3.68499C2.44199 0 1.42999 1.012 1.42999 2.266V17.138C1.42999 18.392 2.44199 19.404 3.68499 19.404H16.159L15.576 17.369L16.984 18.678L18.315 19.91L20.68 22V2.266C20.68 1.012 19.668 0 18.425 0ZM14.179 14.366C14.179 14.366 13.783 13.893 13.453 13.475C14.894 13.068 15.444 12.166 15.444 12.166C14.993 12.463 14.564 12.672 14.179 12.815C13.629 13.046 13.101 13.2 12.584 13.288C11.528 13.486 10.56 13.431 9.73499 13.277C9.10799 13.156 8.56899 12.98 8.11799 12.804C7.86499 12.705 7.58999 12.584 7.31499 12.43C7.28199 12.408 7.24899 12.397 7.21599 12.375C7.19399 12.364 7.18299 12.353 7.17199 12.342C6.97399 12.232 6.86399 12.155 6.86399 12.155C6.86399 12.155 7.39199 13.035 8.78899 13.453C8.45899 13.871 8.05199 14.366 8.05199 14.366C5.62099 14.289 4.69699 12.694 4.69699 12.694C4.69699 9.152 6.28099 6.281 6.28099 6.281C7.86499 5.093 9.37199 5.126 9.37199 5.126L9.48199 5.258C7.50199 5.83 6.58899 6.699 6.58899 6.699C6.58899 6.699 6.83099 6.567 7.23799 6.38C8.41499 5.863 9.34999 5.72 9.73499 5.687C9.80099 5.676 9.85599 5.665 9.92199 5.665C10.593 5.577 11.352 5.555 12.144 5.643C13.189 5.764 14.311 6.072 15.455 6.699C15.455 6.699 14.586 5.874 12.716 5.302L12.87 5.126C12.87 5.126 14.377 5.093 15.961 6.281C15.961 6.281 17.545 9.152 17.545 12.694C17.545 12.694 16.61 14.289 14.179 14.366Z" fill="white"/>
</g>
</svg>
