<?xml version="1.0" encoding="UTF-8"?>
<svg xmlns="http://www.w3.org/2000/svg" xmlns:xlink="http://www.w3.org/1999/xlink" width="24pt" height="24pt" viewBox="0 0 24 24" version="1.1">
<g id="surface1">
<path style=" stroke:none;fill-rule:nonzero;fill:rgb(0%,0%,0%);fill-opacity:1;" d="M 24 0 L 21.023438 0 L 19.78125 0.621094 L 18.539062 0 L 12.703125 0 L 11.296875 0.703125 L 7.410156 0.703125 L 6.003906 0 L 0 0 L 0 11.296875 L 0.703125 12.703125 L 0.703125 16.589844 L 0 17.996094 L 0 24 L 12 24 L 13.242188 23.378906 L 14.480469 24 L 24 24 L 24 14.480469 L 23.378906 13.242188 L 24 12 Z M 6.328125 19.78125 L 4.21875 17.671875 L 4.21875 13.453125 L 10.546875 19.78125 Z M 19.078125 19.78125 L 16.265625 19.78125 L 14.441406 17.640625 L 14.066406 16.113281 L 12.621094 15.496094 L 12 14.769531 L 4.21875 5.625 L 5.625 4.21875 L 12 9.011719 L 19.78125 14.859375 Z M 19.78125 10.546875 L 13.453125 4.21875 L 17.671875 4.21875 L 19.78125 6.328125 Z M 19.78125 10.546875 "/>
</g>
</svg>
