<svg width="24" height="24" viewBox="0 0 24 24" fill="none" xmlns="http://www.w3.org/2000/svg">
<path d="M20.49 3.83976L14.49 2.33976C14.1948 2.26517 13.8865 2.25895 13.5886 2.32158C13.2907 2.3842 13.011 2.51402 12.7708 2.70113C12.5306 2.88824 12.3364 3.12771 12.2028 3.40128C12.0692 3.67486 11.9999 3.97532 12 4.27976V4.99976H10C9.73478 4.99976 9.48043 5.10512 9.29289 5.29266C9.10536 5.48019 9 5.73455 9 5.99976C9 6.26498 9.10536 6.51933 9.29289 6.70687C9.48043 6.89441 9.73478 6.99976 10 6.99976H12V16.9998H10C9.73478 16.9998 9.48043 17.1051 9.29289 17.2927C9.10536 17.4802 9 17.7345 9 17.9998C9 18.265 9.10536 18.5193 9.29289 18.7069C9.48043 18.8944 9.73478 18.9998 10 18.9998H12V19.7198C12.0011 20.0227 12.0709 20.3214 12.2043 20.5934C12.3377 20.8653 12.5311 21.1035 12.77 21.2898C13.1205 21.5664 13.5535 21.7177 14 21.7198C14.1651 21.7189 14.3296 21.6988 14.49 21.6598L20.49 20.1598C20.9218 20.0507 21.3047 19.8006 21.5783 19.4492C21.8518 19.0977 22.0002 18.6651 22 18.2198V5.77976C22.0002 5.33444 21.8518 4.90178 21.5783 4.55036C21.3047 4.19895 20.9218 3.94887 20.49 3.83976Z" fill="#16D5E1"/>
<path d="M9.71 12.7102C9.79833 12.613 9.86936 12.5014 9.92 12.3802C9.97291 12.2605 10.0002 12.1311 10.0002 12.0002C10.0002 11.8693 9.97291 11.7399 9.92 11.6202C9.86936 11.499 9.79833 11.3874 9.71 11.2902L6.71 8.29019C6.5217 8.10188 6.2663 7.99609 6 7.99609C5.7337 7.99609 5.4783 8.10188 5.29 8.29019C5.1017 8.47849 4.99591 8.73388 4.99591 9.00019C4.99591 9.26649 5.1017 9.52188 5.29 9.71019L6.59 11.0002H2C1.73478 11.0002 1.48043 11.1055 1.29289 11.2931C1.10536 11.4806 1 11.735 1 12.0002C1 12.2654 1.10536 12.5198 1.29289 12.7073C1.48043 12.8948 1.73478 13.0002 2 13.0002H6.59L5.29 14.2902C5.19627 14.3831 5.12188 14.4937 5.07111 14.6156C5.02034 14.7375 4.9942 14.8682 4.9942 15.0002C4.9942 15.1322 5.02034 15.2629 5.07111 15.3848C5.12188 15.5066 5.19627 15.6172 5.29 15.7102C5.38296 15.8039 5.49356 15.8783 5.61542 15.9291C5.73728 15.9798 5.86799 16.006 6 16.006C6.13201 16.006 6.26272 15.9798 6.38458 15.9291C6.50644 15.8783 6.61704 15.8039 6.71 15.7102L9.71 12.7102Z" fill="#16D5E1"/>
</svg>
