<svg width="26" height="13" viewBox="0 0 26 13" fill="none" xmlns="http://www.w3.org/2000/svg">
<path opacity="0.8" d="M2.6618 1.55054L2.21234 0.888734L0.888734 1.78766L1.3382 2.44946L2.6618 1.55054ZM24.6541 2.46066L25.1147 1.8066L23.8066 0.885282L23.3459 1.53934L24.6541 2.46066ZM1.96396 7.40614C1.63599 7.70219 1.6101 8.20806 1.90614 8.53604C2.20219 8.86401 2.70806 8.8899 3.03604 8.59386L1.96396 7.40614ZM11.5 7.86948L11.6136 7.07759L11.5 7.86948ZM10.2075 11.3909C10.1472 11.8285 10.4532 12.2322 10.8909 12.2925C11.3285 12.3528 11.7322 12.0468 11.7925 11.6091L10.2075 11.3909ZM17.781 10.8508C17.9748 11.2479 18.4537 11.4127 18.8508 11.219C19.2479 11.0252 19.4127 10.5463 19.219 10.1492L17.781 10.8508ZM21.8534 4.5L21.3038 3.91869L21.8534 4.5ZM23.9067 7.96258C24.2031 8.29024 24.709 8.3156 25.0367 8.01921C25.3643 7.72282 25.3897 7.21693 25.0933 6.88926L23.9067 7.96258ZM1.3382 2.44946C2.27395 3.82729 3.50047 5.05604 4.91565 6.05612L5.83904 4.74946C4.56978 3.8525 3.48246 2.75889 2.6618 1.55054L1.3382 2.44946ZM5.37735 5.40279C4.84131 4.80894 4.8413 4.80894 4.84129 4.80895C4.84128 4.80897 4.84126 4.80898 4.84123 4.80901C4.84122 4.80901 4.84105 4.80917 4.84099 4.80922C4.84078 4.80941 4.84046 4.80971 4.84004 4.81009C4.83919 4.81085 4.83792 4.812 4.83625 4.81351C4.83289 4.81654 4.8279 4.82104 4.82134 4.82696C4.80823 4.8388 4.78883 4.8563 4.76376 4.87893C4.71362 4.9242 4.64072 4.98999 4.54974 5.07212C4.36778 5.23637 4.11345 5.46593 3.82401 5.72719C3.24514 6.24971 2.5258 6.89901 1.96396 7.40614L3.03604 8.59386C3.59787 8.08672 4.31721 7.43742 4.89609 6.9149C5.18553 6.65364 5.43985 6.42408 5.62182 6.25983C5.7128 6.1777 5.78569 6.11191 5.83584 6.06664C5.86091 6.04401 5.8803 6.02651 5.89342 6.01467C5.89998 6.00875 5.90497 6.00424 5.90832 6.00122C5.90999 5.99971 5.91127 5.99856 5.91211 5.9978C5.91254 5.99741 5.91285 5.99713 5.91307 5.99694C5.91322 5.9968 5.91321 5.99681 5.91331 5.99672C5.91333 5.99669 5.91335 5.99668 5.91337 5.99666C5.91338 5.99665 5.91339 5.99665 5.37735 5.40279ZM4.91565 6.05612C6.79823 7.3865 9.03058 8.32341 11.3864 8.66137L11.6136 7.07759C9.52492 6.77794 7.52874 5.94354 5.83904 4.74946L4.91565 6.05612ZM11.5 7.86948C10.7075 7.76033 10.7075 7.76034 10.7075 7.76036C10.7075 7.76038 10.7075 7.7604 10.7075 7.76043C10.7075 7.76047 10.7075 7.76051 10.7074 7.76056C10.7074 7.76061 10.7074 7.76067 10.7074 7.76074C10.7074 7.761 10.7073 7.76141 10.7073 7.76194C10.7071 7.76309 10.7069 7.76453 10.7066 7.76672C10.706 7.77096 10.7052 7.77725 10.704 7.78553C10.7017 7.80208 10.6984 7.82655 10.694 7.85818C10.6853 7.92145 10.6726 8.01343 10.6568 8.12822C10.6252 8.35782 10.581 8.67871 10.5307 9.04392C10.4301 9.77432 10.3051 10.682 10.2075 11.3909L11.7925 11.6091C11.8902 10.9002 12.0152 9.99261 12.1157 9.26221C12.166 8.89701 12.2102 8.57611 12.2419 8.34652C12.2577 8.23171 12.2703 8.13975 12.279 8.07647C12.2834 8.04483 12.2868 8.02038 12.289 8.00382C12.2902 7.99555 12.2911 7.98924 12.2916 7.98502C12.2919 7.98298 12.2922 7.98123 12.2923 7.98024C12.2923 7.97995 12.2925 7.97905 12.2925 7.97903C12.2925 7.97867 12.2925 7.97902 12.2925 7.97873C12.2925 7.97869 12.2925 7.97867 12.2925 7.97865C12.2925 7.97864 12.2925 7.97863 11.5 7.86948ZM11.3864 8.66137C13.2983 8.93565 15.2941 8.81558 17.2452 8.18742L16.7548 6.66441C15.0537 7.21213 13.3047 7.32019 11.6136 7.07759L11.3864 8.66137ZM16.281 7.77674L17.781 10.8508L19.219 10.1492L17.719 7.07509L16.281 7.77674ZM17.2452 8.18742C19.0502 7.60628 20.8022 6.59485 22.403 5.08131L21.3038 3.91869C19.8718 5.27264 18.3264 6.15843 16.7548 6.66441L17.2452 8.18742ZM22.403 5.08131C23.1958 4.33175 23.9497 3.46078 24.6541 2.46066L23.3459 1.53934C22.6993 2.4574 22.0146 3.24659 21.3038 3.91869L22.403 5.08131ZM21.2601 5.03666L23.9067 7.96258L25.0933 6.88926L22.4467 3.96334L21.2601 5.03666Z" fill="white"/>
</svg>
