<svg width="22" height="22" viewBox="0 0 22 22" fill="none" xmlns="http://www.w3.org/2000/svg">
<g opacity="0.4" clip-path="url(#clip0)">
<path fill-rule="evenodd" clip-rule="evenodd" d="M15.4398 6.00221C14.304 4.91899 12.7883 4.32887 11.22 4.35312C8.35029 4.35312 5.91304 6.28917 5.04403 8.89617C4.58325 10.2623 4.58325 11.7417 5.04402 13.1079H5.04806C5.9211 15.7108 8.35432 17.6469 11.2241 17.6469C12.7054 17.6469 13.9772 17.268 14.9628 16.5988V16.596C16.1229 15.8281 16.9151 14.6196 17.1616 13.2534H11.22V9.0175H21.5956C21.7249 9.75313 21.7855 10.5049 21.7855 11.2527C21.7855 14.5984 20.5899 17.427 18.5094 19.3428L18.5116 19.3445C16.6887 21.0259 14.1868 22 11.22 22C7.06092 22 3.2575 19.6557 1.39015 15.9412C-0.17001 12.833 -0.170007 9.17107 1.39016 6.06287C3.25751 2.34433 7.06092 8.85531e-06 11.22 8.85531e-06C13.9523 -0.0323263 16.5917 0.994314 18.5803 2.86167L15.4398 6.00221Z" fill="white"/>
</g>
<defs>
<clipPath id="clip0">
<rect width="22" height="22" fill="white"/>
</clipPath>
</defs>
</svg>
