<svg width="161" height="34" viewBox="0 0 161 34" fill="none" xmlns="http://www.w3.org/2000/svg">
<path fill-rule="evenodd" clip-rule="evenodd" d="M7.43031 11.1647C3.40178 17.3285 0.0599824 22.4915 0.00416616 22.638C-0.0685976 22.829 0.805857 23.4159 3.09359 24.7114C4.84857 25.7054 6.3943 26.6198 6.52859 26.7435C6.7281 26.9276 6.4492 27.6198 4.99963 30.5366C4.02441 32.4992 3.3034 34.0569 3.39736 33.9984C3.6184 33.8608 10.5068 26.3003 10.5669 26.1294C10.592 26.0581 9.40708 25.2556 7.93413 24.3459C6.46098 23.4363 5.22142 22.636 5.17943 22.5675C5.13742 22.4991 7.29381 17.4029 9.97132 11.2428C12.6488 5.0827 14.8205 0.0234607 14.7973 8.12661e-05C14.7741 -0.0232982 11.4588 5.00087 7.43031 11.1647ZM21.5811 11.0757C24.2622 17.2389 26.4536 22.3666 26.451 22.4707C26.4482 22.5748 25.2462 23.399 23.7799 24.3025C22.3133 25.2058 21.1136 26.0282 21.1136 26.1303C21.1136 26.2785 26.1035 31.8427 28.0685 33.8858C28.3461 34.1743 27.813 32.9317 26.6589 30.5995L24.8032 26.8493L28.0703 24.9869C29.8672 23.9627 31.4455 23.054 31.5778 22.9678C31.7561 22.8514 29.9105 19.8945 24.4259 11.5097C20.3602 5.29385 16.9599 0.132194 16.8701 0.0390468C16.7801 -0.0539143 18.9001 4.91255 21.5811 11.0757ZM14.665 13.6376C12.003 14.5167 10.6699 17.2867 11.7225 19.7513C13.0023 22.7483 16.8158 23.5279 19.073 21.2541C20.2669 20.0517 20.6732 18.3182 20.1628 16.6032C19.8843 15.6666 18.8724 14.4894 17.9295 14.0049C17.115 13.5863 15.403 13.3937 14.665 13.6376ZM41.6042 18.6242L41.6533 23.5877H42.6664H43.6796L43.7717 20.0966L43.8638 16.6052L45.9752 18.2774C47.2201 19.2633 48.1652 19.8884 48.2779 19.8004C48.3831 19.7186 49.3395 18.9629 50.4033 18.1212L52.3375 16.591L52.4297 20.0893L52.5218 23.5877H53.5349H54.5481L54.5971 18.6242L54.6463 13.6607H53.5834H52.5205L50.4947 15.3449C49.3806 16.2713 48.3659 17.0732 48.2397 17.1272C48.1136 17.1812 47.0602 16.4232 45.8991 15.443L43.7881 13.6607H42.6716H41.5551L41.6042 18.6242ZM132.009 18.6803V23.7L132.977 23.6438L133.944 23.5877L133.993 20.1087C134.022 18.1952 134.089 16.6296 134.143 16.6296C134.197 16.6296 135.087 17.3116 136.119 18.1453C137.151 18.979 138.089 19.7312 138.201 19.8172C138.331 19.9154 139.181 19.349 140.504 18.2822L142.602 16.5915L142.693 20.0895L142.786 23.5877H143.799H144.812L144.861 18.6242L144.911 13.6607H143.868H142.825L140.667 15.4235C139.48 16.393 138.452 17.1862 138.383 17.1862C138.313 17.1862 137.316 16.393 136.168 15.4235L134.08 13.6607H133.045H132.009V18.6803ZM150.514 14.1162C150.224 14.4079 150.062 14.8023 150.062 15.2134V19.1289V23.6864L155.174 23.6371L160.286 23.5877V22.66V21.7322L156.371 21.6821L152.457 21.632V20.4296V19.2273H156.326H160.194V18.3923V17.5573H156.326H152.457V16.444V15.3307H156.326H160.194V14.4957V13.6607H155.58H151.608C151.197 13.6607 150.804 13.8247 150.514 14.1162ZM61.0156 18.4528C59.4414 20.9864 58.0999 23.1992 58.0349 23.3699C57.9317 23.6408 58.0708 23.6805 59.1225 23.6805H60.3281L61.0105 22.5672L61.6926 21.4539H65.1324H68.572L69.2991 22.5208L70.0261 23.5877L71.1906 23.6434C72.0971 23.6866 72.3415 23.6434 72.2938 23.4476C72.2601 23.3096 70.9072 21.0926 69.2876 18.5214L66.3428 13.8463H65.1103H63.8779L61.0156 18.4528ZM75.8675 18.717L75.9167 23.5877H76.9298H77.943L77.9923 18.717L78.0412 13.8463H76.9298H75.8185L75.8675 18.717ZM82.8678 18.717L82.9164 23.5877H83.9299H84.9434L85.0349 20.2756L85.1272 16.9635L88.7765 20.3313L92.4258 23.6991L93.3819 23.6434L94.3379 23.5877L94.3873 18.717L94.4359 13.8463H93.3277H92.2194V17.1979V20.5497L88.5531 17.1979L84.8867 13.8463H83.8522H82.8184L82.8678 18.717ZM100.513 14.0845C99.6873 14.5054 99.5934 14.982 99.5934 18.7634C99.5934 22.7089 99.6824 23.0867 100.698 23.4382C101.512 23.7196 108.794 23.7571 109.767 23.4847C110.835 23.1862 111.029 22.7191 111.145 20.1613L111.247 17.9284H107.997H104.746V18.7634V19.5983H106.772H108.798V20.6189V21.6394H105.39H101.983V18.6706V15.7018H105.39C108.297 15.7018 108.798 15.7428 108.798 15.9801C108.798 16.1966 109.044 16.2584 109.903 16.2584C111.005 16.2584 111.009 16.2566 111.009 15.7105C111.009 14.8742 110.649 14.2565 110.035 14.0411C109.208 13.7507 101.095 13.7878 100.513 14.0845ZM119.897 14.0782C119.449 14.6438 114.141 23.3272 114.141 23.4942C114.141 23.5994 114.651 23.6805 115.312 23.6805H116.483L117.165 22.5672L117.847 21.4539L121.29 21.4556L124.733 21.457L125.444 22.5689L126.155 23.6805H127.333C127.979 23.6805 128.51 23.6265 128.51 23.5606C128.51 23.4947 127.163 21.2852 125.516 18.6508L122.522 13.8608L121.302 13.8536C120.537 13.8491 120.012 13.9331 119.897 14.0782ZM66.3618 17.8664L67.3566 19.5056L65.2107 19.5581C64.0304 19.5868 63.03 19.5755 62.9874 19.5327C62.9448 19.4898 63.391 18.6583 63.979 17.6848C64.5712 16.7045 65.1193 15.9845 65.2077 16.071C65.2954 16.157 65.8147 16.9648 66.3618 17.8664ZM122.169 17.3254C122.654 18.1162 123.169 18.9511 123.314 19.1809L123.578 19.5983H121.27H118.963L120.08 17.7428C120.695 16.7223 121.218 15.8873 121.242 15.8873C121.267 15.8873 121.684 16.5345 122.169 17.3254Z" fill="white"/>
</svg>
