<svg width="32" height="32" viewBox="0 0 32 32" fill="none" xmlns="http://www.w3.org/2000/svg">
<circle cx="16" cy="16" r="16" fill="#01D6E3"/>
<path fill-rule="evenodd" clip-rule="evenodd" d="M10.7043 12.2242C8.15374 16.2126 6.03798 19.5533 6.00264 19.6481C5.95657 19.7717 6.51021 20.1515 7.95862 20.9897C9.06975 21.6329 10.0484 22.2246 10.1334 22.3046C10.2597 22.4238 10.0831 22.8716 9.16538 24.759C8.54795 26.0289 8.09146 27.0368 8.15095 26.999C8.2909 26.9099 12.6521 22.0179 12.6901 21.9073C12.706 21.8611 11.9558 21.3419 11.0233 20.7532C10.0906 20.1647 9.30581 19.6468 9.27922 19.6025C9.25262 19.5583 10.6179 16.2607 12.3131 12.2748C14.0083 8.2888 15.3832 5.01518 15.3685 5.00005C15.3539 4.98492 13.2548 8.23586 10.7043 12.2242ZM19.6635 12.1666C21.361 16.1546 22.7484 19.4725 22.7467 19.5399C22.745 19.6072 21.984 20.1405 21.0556 20.7251C20.1271 21.3096 19.3675 21.8418 19.3675 21.9079C19.3675 22.0038 22.5267 25.6041 23.7708 26.9261C23.9466 27.1128 23.6091 26.3087 22.8784 24.7997L21.7035 22.3731L23.772 21.168C24.9096 20.5053 25.9089 19.9173 25.9926 19.8615C26.1055 19.7862 24.937 17.8729 21.4646 12.4474C18.8905 8.42543 16.7377 5.08554 16.6808 5.02527C16.6239 4.96511 17.9661 8.17871 19.6635 12.1666ZM15.2848 13.8243C13.5994 14.3932 12.7553 16.1855 13.4218 17.7802C14.2321 19.7195 16.6465 20.224 18.0756 18.7526C18.8315 17.9746 19.0887 16.853 18.7656 15.7432C18.5892 15.1372 17.9486 14.3755 17.3516 14.062C16.8359 13.7912 15.752 13.6665 15.2848 13.8243Z" fill="#170D40"/>
</svg>
