<svg width="22" height="20" viewBox="0 0 22 20" fill="none" xmlns="http://www.w3.org/2000/svg">
<path opacity="0.4" d="M21.8337 14.2684C21.8337 17.2909 19.407 19.7392 16.3845 19.7501H16.3737H5.63783C2.62616 19.7501 0.166992 17.3126 0.166992 14.2901V14.2792C0.166992 14.2792 0.173492 9.48441 0.182159 7.07291C0.183242 6.62008 0.703242 6.36658 1.05749 6.64825C3.63149 8.69033 8.23458 12.4137 8.29199 12.4625C9.06116 13.0789 10.0362 13.4267 11.0328 13.4267C12.0295 13.4267 13.0045 13.0789 13.7737 12.4506C13.8311 12.4127 18.3312 8.80083 20.9442 6.72516C21.2996 6.44241 21.8217 6.69591 21.8228 7.14766C21.8337 9.54075 21.8337 14.2684 21.8337 14.2684Z" fill="white"/>
<path d="M21.2659 3.14635C20.3278 1.37835 18.4818 0.249512 16.4494 0.249512H5.63778C3.60545 0.249512 1.75945 1.37835 0.821281 3.14635C0.611114 3.54176 0.710781 4.03468 1.0607 4.31418L9.10445 10.7481C9.66778 11.2031 10.3503 11.4295 11.0328 11.4295C11.0371 11.4295 11.0404 11.4295 11.0436 11.4295C11.0469 11.4295 11.0512 11.4295 11.0544 11.4295C11.7369 11.4295 12.4194 11.2031 12.9828 10.7481L21.0265 4.31418C21.3764 4.03468 21.4761 3.54176 21.2659 3.14635Z" fill="#817B9B"/>
</svg>
