<svg width="26" height="26" viewBox="0 0 26 26" fill="none" xmlns="http://www.w3.org/2000/svg">
<g id="Iconly/Bulk/More Square">
<path id="Subtract" opacity="0.4" fill-rule="evenodd" clip-rule="evenodd" d="M8.30949 2.11206H17.702C21.3745 2.11206 23.8337 4.62556 23.8337 8.36414V16.9924C23.8337 20.7204 21.3745 23.2339 17.702 23.2339H8.30949C4.63699 23.2339 2.16699 20.7204 2.16699 16.9924V8.36414C2.16699 4.62556 4.63699 2.11206 8.30949 2.11206ZM13.9812 14.4236H11.5649L11.5495 14.1226C11.4337 13.0088 11.7888 12.3165 12.8618 11.7144C13.9117 11.1124 14.1819 10.7888 14.1819 10.1416V10.1265C14.1819 9.51694 13.6646 9.10304 12.9467 9.10304C12.2056 9.10304 11.6961 9.60725 11.673 10.262V10.3147H9.16406V10.2545C9.19494 8.36553 10.654 7.05607 13.1243 7.05607C15.4633 7.05607 16.9996 8.25264 16.9996 10.0588V10.0738C16.9996 11.1801 16.4669 11.9477 15.3321 12.5874C14.2745 13.1819 13.9812 13.5356 13.9812 14.2054V14.4236ZM14.2822 16.7566C14.2822 17.5167 13.6261 18.1112 12.8232 18.1112C12.0126 18.1112 11.3642 17.5167 11.3642 16.7566C11.3642 16.004 12.0126 15.4095 12.8232 15.4095C13.6261 15.4095 14.2822 16.004 14.2822 16.7566Z" fill="white"/>
</g>
</svg>
