<?xml version="1.0" encoding="utf-8"?><svg xmlns="http://www.w3.org/2000/svg" xmlns:xlink="http://www.w3.org/1999/xlink"><symbol viewBox="0 0 40 42" id="academy" xmlns="http://www.w3.org/2000/svg"><g clip-path="url(#aaa)"><path d="M19.06 0L6.879 27.77l6.93 4.298-9.194 9.977 4.593-9.042-8.681-4.902L19.06 0zm2.23 0l12.182 27.77-6.935 4.298 9.2 9.977-4.594-9.042 8.682-4.902L21.289 0zm-4.23 26.198h6.503v-1.094H17.06v1.094z"/><path d="M19.496 26.106v4.14h1.428v-4.14h-1.428z"/><path d="M19.317 31.162h1.787v-1.094h-1.787v1.094zm.826-21.93c-2.92 3.455-3.574 8.284-3.574 8.284l1.787-1.589-1.323 3.804 1.564-1.266-.227 5.47h1.937l1.919-.032-.341-5.465 1.591 1.239-1.405-3.781 1.824 1.557s-.76-4.816-3.752-8.22z"/></g><defs><clipPath id="aaa"><path d="M0 0h40v42H0z"/></clipPath></defs></symbol><symbol viewBox="0 0 44 46" id="arena" xmlns="http://www.w3.org/2000/svg"><path d="M20.77 0L7.485 30.382l7.563 4.703L5.014 46l5.01-9.892-9.468-5.363L20.77 0zm2.43 0l13.287 30.382-7.563 4.703L38.957 46l-5.009-9.892 9.468-5.363L23.201 0z"/><path d="M17.934 33.819l3.704-3.616 3.77 3.735c.159.158.426.03.411-.194l-.456-5.348 1.25-1.515.635-2.349c.024-.094-.09-.164-.159-.09-.332.358-.932.74-1.661.026l-.858-.696s-.348 1.088-1.761-.164c0 0 .471 1.823-.144 2.866 0 0 .223-3.501-4.91-6.203 0 0-.163-.76.695-1.043l2.107.924s.531.571 1.166-.531c0 0 .387-.407-.387-.8l-3.204-1.907a.716.716 0 00-.962.214l-2.653 3.858a.87.87 0 00.084 1.093l3.834 4.092-.898 7.449c-.04.223.233.357.397.199z"/><path d="M23.35 22.243l-.63-.437a.622.622 0 01-.159-.864l2.658-3.869a.62.62 0 01.863-.159l.63.437a.622.622 0 01.159.864l-2.659 3.869a.62.62 0 01-.862.159zm3.144 1.395l-.63-.437a.622.622 0 01-.159-.864l2.153-3.133a.62.62 0 01.863-.16l.63.438a.622.622 0 01.158.864l-2.152 3.133a.622.622 0 01-.863.16zm-4.161-5.641l-.63-.437a.622.622 0 01-.159-.864l.968-1.41a.62.62 0 01.863-.16l.63.438a.622.622 0 01.158.864l-.967 1.41a.62.62 0 01-.863.16zm-2.837-1.957l-.63-.437a.622.622 0 01-.159-.864l.968-1.41a.62.62 0 01.863-.159l.63.437a.622.622 0 01.158.864l-.967 1.41a.62.62 0 01-.863.16z"/></symbol><symbol viewBox="0 0 8 8" id="arrow-down" xmlns="http://www.w3.org/2000/svg"><g clip-path="url(#aca)"><path d="M4.312 6.223l3.56-3.56A.434.434 0 008 2.353a.434.434 0 00-.128-.31l-.262-.261a.438.438 0 00-.619 0L4.001 4.77 1.01 1.778a.435.435 0 00-.619 0l-.262.262A.435.435 0 000 2.35c0 .117.045.227.128.31L3.69 6.222a.435.435 0 00.31.127.435.435 0 00.311-.127z"/></g><defs><clipPath id="aca"><path transform="rotate(90 4 4)" d="M0 0h8v8H0z"/></clipPath></defs></symbol><symbol viewBox="0 0 24 24" id="arrow-right" xmlns="http://www.w3.org/2000/svg"><path d="M15.27 12.583l-5.358 5.66a.808.808 0 01-1.18 0 .852.852 0 010-1.167L13.535 12 8.73 6.925a.852.852 0 010-1.168.805.805 0 011.181.003l5.355 5.656c.31.325.31.844.004 1.167z"/></symbol><symbol viewBox="0 0 8 8" id="arrow-up" xmlns="http://www.w3.org/2000/svg"><g clip-path="url(#aea)"><path d="M3.688 1.777l-3.56 3.56a.434.434 0 00-.128.31c0 .117.045.227.128.31l.262.261c.17.171.448.171.619 0l2.99-2.99L6.99 6.223a.435.435 0 00.619 0l.262-.262A.435.435 0 008 5.65a.434.434 0 00-.128-.31L4.31 1.778A.435.435 0 004 1.651a.435.435 0 00-.311.127z"/></g><defs><clipPath id="aea"><path transform="rotate(-90 4 4)" d="M0 0h8v8H0z"/></clipPath></defs></symbol><symbol viewBox="0 0 13 16" id="bookmark" xmlns="http://www.w3.org/2000/svg"><path opacity=".4" d="M6.493 12.966l-4.868 2.432a.764.764 0 01-1.032-.3.817.817 0 01-.093-.373V9.281c0 .54.304.873 1.105 1.246l4.888 2.439z"/><path fill-rule="evenodd" clip-rule="evenodd" d="M4.171.5h4.631c2.031 0 3.678.8 3.698 2.845v11.38a.79.79 0 01-.093.367.762.762 0 01-1.051.306l-4.863-2.432-4.888-2.438C.805 10.153.5 9.82.5 9.281V3.345C.5 1.3 2.147.5 4.171.5zm-.503 5.717h5.643a.59.59 0 00.589-.593.59.59 0 00-.59-.593H3.669a.59.59 0 00-.589.593.59.59 0 00.589.593z"/></symbol><symbol viewBox="0 0 24 24" id="brain" xmlns="http://www.w3.org/2000/svg"><path d="M8.719 0a4.46 4.46 0 00-4.16 2.863 5.817 5.817 0 014.05 1.725c.476.484-.02 1.286-.67 1.086a1.576 1.576 0 01-.568-.319A4.443 4.443 0 004.27 4.272v-.003A4.459 4.459 0 000 8.72C0 9.98.535 11.166 1.443 12A4.456 4.456 0 000 15.281a4.459 4.459 0 004.27 4.45 4.459 4.459 0 004.574 4.267 3.91 3.91 0 002.453-.95V.952A3.91 3.91 0 008.719 0zm13.838 12A4.456 4.456 0 0024 8.719a4.459 4.459 0 00-4.27-4.45A4.459 4.459 0 0015.157.002a3.91 3.91 0 00-2.453.95v22.097a3.911 3.911 0 002.578.951 4.46 4.46 0 004.16-2.863 5.818 5.818 0 01-4.037-1.713l-.012-.012c-.477-.484.019-1.286.669-1.086.21.065.402.175.567.319.884.767 2 1.128 3.103 1.083v.003A4.459 4.459 0 0024 15.28 4.456 4.456 0 0022.557 12z"/></symbol><symbol viewBox="0 0 24 26" id="calendar" xmlns="http://www.w3.org/2000/svg"><path fill-rule="evenodd" clip-rule="evenodd" d="M0 19.207V9.374h23.25v9.912c0 4.055-2.552 6.548-6.636 6.548H6.623C2.578 25.834 0 23.289 0 19.207zM5.813 15a1.5 1.5 0 01-1.563-1.444c0-.83.654-1.517 1.49-1.555.818 0 1.49.634 1.509 1.445A1.495 1.495 0 015.813 15zm6 0a1.5 1.5 0 01-1.563-1.444c0-.83.654-1.517 1.49-1.555.818 0 1.49.634 1.509 1.445A1.495 1.495 0 0111.813 15zm5.92 6a1.512 1.512 0 01-1.483-1.5c-.017-.813.643-1.482 1.465-1.5h.017c.84 0 1.518.671 1.518 1.5 0 .83-.678 1.5-1.518 1.5zm-7.483-1.446a1.5 1.5 0 001.563 1.445 1.494 1.494 0 001.436-1.552A1.492 1.492 0 0011.74 18a1.557 1.557 0 00-1.49 1.554zm-6 0a1.5 1.5 0 001.563 1.445 1.494 1.494 0 001.436-1.552A1.492 1.492 0 005.74 18a1.557 1.557 0 00-1.49 1.554zm12-6.026c0-.837.654-1.51 1.49-1.528.819 0 1.473.653 1.51 1.456.018.836-.637 1.527-1.455 1.544-.836.018-1.527-.619-1.545-1.454v-.018z"/><path d="M.004 9.374c.016-.759.08-2.263.2-2.748.613-2.724 2.693-4.455 5.666-4.701h11.51c2.948.26 5.053 2.002 5.666 4.701.119.472.182 1.988.199 2.748H.004z"/><path d="M6.853 5.929c.561 0 .982-.425.982-.995V.996c0-.57-.42-.996-.982-.996S5.87.426 5.87.996v3.938c0 .57.421.995.983.995zm9.545 0a.972.972 0 00.982-.995V.996A.973.973 0 0016.398 0c-.562 0-.983.426-.983.996v3.938c0 .57.421.995.983.995z"/></symbol><symbol viewBox="0 0 15 16" id="calendar1" xmlns="http://www.w3.org/2000/svg"><path fill-rule="evenodd" clip-rule="evenodd" d="M.75 11.653v-5.71h13.5v5.755c0 2.355-1.482 3.802-3.853 3.802H4.596C2.246 15.5.75 14.023.75 11.653zm3.72-1.845a.616.616 0 01-.638-.6.64.64 0 01.608-.645c.333 0 .607.263.615.6a.616.616 0 01-.585.645zm3.045 0a.616.616 0 01-.637-.6.64.64 0 01.607-.645c.334 0 .608.263.615.6a.616.616 0 01-.585.645zm3.023 2.76a.635.635 0 01-.615-.638.623.623 0 01.608-.636h.007c.348 0 .63.284.63.636a.633.633 0 01-.63.638zm-3.66-.638a.616.616 0 00.637.6c.333-.014.6-.3.585-.644a.613.613 0 00-.615-.6.641.641 0 00-.607.644zm-3.053 0a.616.616 0 00.638.6c.333-.014.6-.3.585-.644a.613.613 0 00-.615-.6.641.641 0 00-.608.644zM9.93 9.2c0-.344.267-.622.608-.63.333 0 .6.27.615.6a.61.61 0 11-1.223.037v-.006z"/><path opacity=".4" d="M.752 5.943c.01-.44.047-1.314.116-1.596.356-1.581 1.564-2.586 3.29-2.73h6.683c1.712.151 2.934 1.163 3.29 2.73.07.274.106 1.155.116 1.596H.752z"/><path d="M4.729 3.942a.56.56 0 00.57-.577V1.078A.56.56 0 004.73.5a.56.56 0 00-.57.578v2.287c0 .33.244.577.57.577zm5.543 0c.318 0 .57-.246.57-.577V1.078a.565.565 0 00-.57-.578.56.56 0 00-.57.578v2.287c0 .33.244.577.57.577z"/></symbol><symbol viewBox="0 0 17 17" id="cancel" xmlns="http://www.w3.org/2000/svg"><path fill-rule="evenodd" clip-rule="evenodd" d="M.94.94a1.5 1.5 0 012.12 0L8.5 6.378l5.44-5.44a1.5 1.5 0 012.12 2.122L10.622 8.5l5.44 5.44a1.5 1.5 0 01-2.122 2.12L8.5 10.622l-5.44 5.44A1.5 1.5 0 01.94 13.94L6.378 8.5.939 3.06a1.5 1.5 0 010-2.12z"/></symbol><symbol viewBox="0 0 15 16" id="category" xmlns="http://www.w3.org/2000/svg"><path opacity=".4" d="M10.556.5h2.54C14.147.5 15 1.36 15 2.42v2.56c0 1.061-.853 1.92-1.904 1.92h-2.54a1.912 1.912 0 01-1.904-1.92V2.42c0-1.06.853-1.92 1.904-1.92z"/><path fill-rule="evenodd" clip-rule="evenodd" d="M1.904.5h2.54c1.051 0 1.903.86 1.903 1.92v2.56c0 1.061-.852 1.92-1.904 1.92h-2.54A1.912 1.912 0 010 4.98V2.42C0 1.36.852.5 1.904.5zm0 8.6h2.54c1.051 0 1.903.859 1.903 1.92v2.56c0 1.06-.852 1.92-1.904 1.92h-2.54A1.912 1.912 0 010 13.58v-2.56A1.91 1.91 0 011.904 9.1zm11.192 0h-2.54a1.911 1.911 0 00-1.903 1.92v2.56c0 1.06.852 1.92 1.904 1.92h2.54c1.05 0 1.903-.86 1.903-1.92v-2.56c0-1.061-.852-1.92-1.904-1.92z"/></symbol><symbol viewBox="0 0 16 16" id="circle" xmlns="http://www.w3.org/2000/svg"><circle cx="8" cy="8" r="8"/></symbol><symbol viewBox="0 0 24 24" id="clock" xmlns="http://www.w3.org/2000/svg"><path d="M4.35 5.55l.55-.61c.23-.22.43-.4.64-.58.275-.232.562-.449.86-.65a9.12 9.12 0 011.48-.82 3.65 3.65 0 01.39-.17A4 4 0 006 2a4 4 0 00-4 4 4 4 0 00.72 2.27c0-.14.11-.27.17-.4a9.06 9.06 0 01.84-1.49c.19-.288.397-.566.62-.83zM18 2a4 4 0 00-2.27.72l.4.17a9.017 9.017 0 011.49.84c.289.19.566.397.83.62l.61.55c.22.23.4.43.58.64.232.275.45.562.65.86.32.467.594.962.82 1.48.065.126.122.257.17.39A4 4 0 0022 6a4 4 0 00-4-4zm2.2 6.29a9.334 9.334 0 00-1.32-2.1c-.17-.2-.34-.38-.51-.56-.17-.18-.36-.34-.56-.51a9.34 9.34 0 00-2.9-1.64 9.2 9.2 0 00-5.82 0 9.34 9.34 0 00-2.9 1.64c-.2.17-.38.34-.56.51-.18.17-.34.36-.51.56a9.34 9.34 0 00-1.64 2.9 9 9 0 003 10.01 9.538 9.538 0 001.76 1.08 8.889 8.889 0 002.61.74 8.31 8.31 0 002.3 0 8.888 8.888 0 002.61-.74 9.533 9.533 0 001.76-1.08 9 9 0 003-10.01 7.824 7.824 0 00-.32-.8zm-5.49 6.42a1 1 0 01-1.42 0l-2-2A.999.999 0 0111 12V8a1 1 0 012 0v3.59l1.71 1.7a.999.999 0 010 1.42zm-8.94 5.1l-.48.48a.999.999 0 000 1.42 1 1 0 001.42 0l.79-.79a9.591 9.591 0 01-1.63-1l-.1-.11zm12.46 0l-.1.08a9.375 9.375 0 01-1.63 1l.79.79a1.002 1.002 0 001.639-.325.999.999 0 00-.219-1.095l-.48-.45z"/></symbol><symbol viewBox="0 0 14 14" id="close" xmlns="http://www.w3.org/2000/svg"><path d="M7 5.586l4.95-4.95 1.414 1.414L8.414 7l4.95 4.95-1.414 1.414L7 8.414l-4.95 4.95L.636 11.95 5.586 7 .636 2.05 2.05.636 7 5.586z"/></symbol><symbol viewBox="0 0 24 24" id="close1" xmlns="http://www.w3.org/2000/svg"><path fill-rule="evenodd" clip-rule="evenodd" d="M22.807 23.971L.028 1.194 1.222 0 24 22.778l-1.193 1.194z"/><path fill-rule="evenodd" clip-rule="evenodd" d="M0 22.778L22.778 0l1.194 1.193-22.78 22.778L0 22.778z"/></symbol><symbol viewBox="0 0 18 18" id="comment" xmlns="http://www.w3.org/2000/svg"><path fill-rule="evenodd" clip-rule="evenodd" d="M1.421.947a.474.474 0 00-.474.474V12.79a.474.474 0 00.474.473h3.79c.261 0 .473.212.473.474v2.804l3.967-3.174a.474.474 0 01.296-.104h6.632a.474.474 0 00.474-.473V1.42a.474.474 0 00-.474-.474H1.42zM.416.417A1.421 1.421 0 011.421 0H16.58A1.421 1.421 0 0118 1.421V12.79a1.42 1.42 0 01-1.421 1.42h-6.466l-4.607 3.686a.474.474 0 01-.77-.37V14.21H1.422A1.421 1.421 0 010 12.79V1.42C0 1.044.15.683.416.416z"/></symbol><symbol viewBox="0 0 20 19" id="compact-view" xmlns="http://www.w3.org/2000/svg"><path d="M7.25.92a.917.917 0 00-.916.917v2.374L2.4.27a.92.92 0 00-1.3 1.3l3.94 3.934H2.667a.917.917 0 000 1.833h3.667a1.833 1.833 0 001.833-1.833V1.837A.917.917 0 007.25.92zm7.71 11.917h2.374a.917.917 0 000-1.833h-3.667a1.833 1.833 0 00-1.833 1.833v3.667a.917.917 0 001.833 0v-2.375l3.933 3.942a.916.916 0 001.301 0 .917.917 0 000-1.302l-3.941-3.932z"/></symbol><symbol viewBox="0 0 35 35" id="counter-strike" xmlns="http://www.w3.org/2000/svg"><path d="M17.406 2.988c.465-.16.973-.027 1.399.184.297.191.593.387.93.512l.1.187-.05.129c.238.54.39 1.18.16 1.75-.16.191-.43.219-.652.293 0 .277.043.547.066.82.473.074.875-.254 1.34-.218.067-.266.113-.532.2-.79.097.172.101.368.101.56.121.034.246.065.371.097l.004.187c2.05.012 4.102-.008 6.152.012l-.02.281h.216v-1.12l.203-.005.008.88.18.222.132-.16c.156.148.07.347.063.527.57-.008 1.152.031 1.726-.016l.168-.125.238.094c.258-.008.516-.008.778-.008l-.016.399c-.336-.004-.668-.012-.996.047-.21-.184-.496-.125-.754-.133-.394.02-.797-.051-1.18.074a.822.822 0 01-.675-.082c-.047.121.027.387-.172.379-.793.008-1.586-.008-2.375.004a8.45 8.45 0 01-.324.164c-.118.34-.442.57-.723.777-.035.524.172 1.012.254 1.52-.156.043-.313.09-.465.14-.223.524-.086 1.235-.602 1.598-.39.23-.648.727-1.18.648.27.223-.073.153-.038-.023-.957-.086-1.762-.648-2.594-1.078a7.18 7.18 0 01-.164.695c.32.055.57.3.633.617.101.707-.102 1.41-.098 2.118.023.414-.156.796-.379 1.136-.195.219-.5-.008-.734-.039l-.157.309c.067.277.094.566.188.84.52.574.996 1.199 1.36 1.886.374.782.706 1.578 1 2.395.03.156.179.215.308.273l.05.489.157.222c.031 1.008-.094 2.008-.25 3-.094.45.168.887.059 1.336.015.23-.145.406-.22.61-.01.476-.038.96.016 1.433.036.352.329.574.532.836.218.23.398.54.73.625.313.09.606.227.883.402.082.207.066.426.027.641-.597.11-1.207.055-1.812.066-.465.024-.88-.226-1.332-.277-.438-.012-.969.203-1.305-.187.14-.543.152-1.125.414-1.633.082-.574-.074-1.156-.043-1.735l-.199-.168c.035-.378-.148-.714-.215-1.078a36.072 36.072 0 00-.148-1.582c-.047-.254.086-.492.265-.66.016-.297.059-.59.086-.883-.047-.191-.195-.332-.293-.496-.328.137-.773.074-.965-.25-.464-.683-.925-1.37-1.39-2.054-.184-.016-.38.007-.551-.067-.195-.203-.3-.473-.426-.723-.18.208-.168.516-.383.704-.449.433-.57 1.07-.808 1.629-.18.359-.078.796-.281 1.148-.106.187-.38.227-.454.441-.09.235-.199.477-.421.618-.235.156-.301.453-.407.695-.097.226.047.465.016.695-.152.735-.621 1.348-.816 2.07-.09.325-.22.688-.598.758-.426.766-.664 1.707-.422 2.567.148.273.14.578.094.875-.68.054-1.383.148-2.051-.043-.156-.313-.133-.676-.102-1.016.207-.883.48-1.75.649-2.644-.211-.188-.16-.473-.156-.723-.008-.465.308-.84.53-1.223.083-.39.044-.812.247-1.172.238-.453.441-.937.809-1.304.07-.32.304-.563.402-.871.101-.274-.074-.551-.04-.832.087-.848.243-1.684.376-2.528-.254-.21-.172-.547-.254-.832.043-.11.09-.219.152-.324l-.191-.172c.062-.3.043-.836.504-.738.027-.992-.317-1.95-.2-2.942l.184.22-.035-.337c.195-.101.395-.18.61-.222-.348-.043-.688-.133-1.028-.211-.082-.22-.039-.45-.008-.672.133-.75.184-1.512.211-2.274.387-.132.813-.02 1.188-.199-.118-.953-.145-1.945.191-2.86.274-.777.793-1.527 1.606-1.796.382-.094.867-.195 1.136.176l.223-.207c-.617-1.23.121-3.024 1.527-3.278zM22.36 8.32c-.164.098-.324.215-.152.395-.086.05-.168.098-.254.144-.129.102-.43.16-.394.364.148.242.277.492.382.754.325-.266.586-.63.758-1.008l.149-.149a1.635 1.635 0 00-.121-.508c-.122.004-.247.008-.368.008zm0 0"/></symbol><symbol viewBox="0 0 16 16" id="cute-skull" xmlns="http://www.w3.org/2000/svg"><path d="M15.914 7.269c-.286-1.831-1.131-3.343-2.534-4.53C11.905 1.464 10.108.826 7.99.826c-2.12 0-3.917.63-5.39 1.89C1.195 3.92.357 5.436.085 7.268a4.578 4.578 0 00-.086.86c0 1.202.394 2.254 1.182 3.156.787.902 1.896 1.562 3.329 1.976v.323c0 .4.136.737.408 1.009a1.53 1.53 0 001.009.451c.415.03.722-.043.923-.215a1.75 1.75 0 001.053.343c.357 0 .687-.106.987-.321.201.157.494.222.881.193.4-.043.737-.197 1.01-.461.271-.267.407-.598.407-.999v-.236c1.546-.401 2.742-1.074 3.587-2.02.816-.901 1.224-1.968 1.224-3.2a4.6 4.6 0 00-.086-.86zM6.143 9.342c-.43.494-.946.74-1.547.74s-1.116-.246-1.546-.74c-.43-.494-.644-1.092-.644-1.794 0-.701.215-1.3.644-1.792.43-.494.945-.74 1.546-.74.601 0 1.117.246 1.547.74.43.493.644 1.091.644 1.792 0 .702-.215 1.3-.644 1.794zm1.868 2.845c-.358 0-.623-.092-.795-.275a.62.62 0 01-.15-.426c0-.269.104-.537.311-.807.208-.268.412-.403.612-.403s.39.148.57.447c.178.297.268.58.268.85 0 .41-.272.614-.816.614zm4.735-2.845c-.422.494-.941.74-1.557.74-.6 0-1.113-.246-1.535-.74-.423-.494-.634-1.092-.634-1.794 0-.701.211-1.3.634-1.792.422-.494.934-.74 1.535-.74.616 0 1.135.246 1.557.74.422.493.634 1.091.634 1.792 0 .702-.212 1.3-.634 1.794z"/></symbol><symbol viewBox="0 0 22 22" id="discord" xmlns="http://www.w3.org/2000/svg"><path d="M9.064 9.229c-.627 0-1.122.55-1.122 1.221s.506 1.221 1.122 1.221c.627 0 1.122-.55 1.122-1.221.011-.671-.495-1.221-1.122-1.221zm4.015 0c-.627 0-1.122.55-1.122 1.221s.506 1.221 1.122 1.221c.627 0 1.122-.55 1.122-1.221s-.495-1.221-1.122-1.221z"/><path d="M18.425 0H3.685A2.26 2.26 0 001.43 2.266v14.872a2.26 2.26 0 002.255 2.266h12.474l-.583-2.035 1.408 1.309 1.331 1.232L20.68 22V2.266A2.26 2.26 0 0018.425 0zm-4.246 14.366s-.396-.473-.726-.891c1.441-.407 1.991-1.309 1.991-1.309-.451.297-.88.506-1.265.649a7.24 7.24 0 01-1.595.473 7.706 7.706 0 01-2.849-.011 9.234 9.234 0 01-1.617-.473 6.446 6.446 0 01-.803-.374c-.033-.022-.066-.033-.099-.055a.152.152 0 01-.044-.033 3.86 3.86 0 01-.308-.187s.528.88 1.925 1.298c-.33.418-.737.913-.737.913-2.431-.077-3.355-1.672-3.355-1.672 0-3.542 1.584-6.413 1.584-6.413 1.584-1.188 3.091-1.155 3.091-1.155l.11.132c-1.98.572-2.893 1.441-2.893 1.441s.242-.132.649-.319c1.177-.517 2.112-.66 2.497-.693.066-.011.121-.022.187-.022a8.967 8.967 0 015.533 1.034s-.869-.825-2.739-1.397l.154-.176s1.507-.033 3.091 1.155c0 0 1.584 2.871 1.584 6.413 0 0-.935 1.595-3.366 1.672z"/></symbol><symbol viewBox="0 0 24 24" id="discord-btn" xmlns="http://www.w3.org/2000/svg"><g clip-path="url(#aua)"><path d="M22.717 10.55c-.955-3.282-2.033-4.978-2.05-5.008-.061-.075-1.584-1.897-5.253-3.245l-.484 1.32c1.745.641 2.983 1.423 3.664 1.929-2.033-.607-4.452-.98-6.594-.98-2.142 0-4.561.373-6.594.98.68-.505 1.919-1.288 3.664-1.929l-.484-1.32c-3.67 1.348-5.192 3.17-5.253 3.245-.017.03-1.095 1.726-2.05 5.008C.363 13.713.013 18.175 0 18.354c.082.128 1.969 3.35 7.11 3.35l1.304-1.888a13.86 13.86 0 01-4.127-1.861l.78-1.171A12.473 12.473 0 0012 18.876c2.48 0 4.878-.723 6.934-2.092l.78 1.17a13.86 13.86 0 01-4.128 1.862l1.303 1.887c5.142 0 7.029-3.221 7.111-3.35-.013-.178-.362-4.64-1.283-7.803zM8.749 14.229H7.343v-2.344h1.406v2.344zm7.908 0h-1.406v-2.344h1.406v2.344z"/></g><defs><clipPath id="aua"><path d="M0 0h24v24H0z"/></clipPath></defs></symbol><symbol viewBox="0 0 24 24" id="dota-2" xmlns="http://www.w3.org/2000/svg"><path d="M24 0h-2.977l-1.242.621L18.54 0h-5.836l-1.406.703H7.41L6.004 0H0v11.297l.703 1.406v3.887L0 17.996V24h12l1.242-.621L14.48 24H24v-9.52l-.621-1.238L24 12zM6.328 19.781l-2.11-2.11v-4.218l6.329 6.328zm12.75 0h-2.812l-1.825-2.14-.375-1.528-1.445-.617L12 14.77 4.219 5.625l1.406-1.406L12 9.012l7.781 5.847zm.703-9.234l-6.328-6.328h4.219l2.11 2.11zm0 0"/></symbol><symbol viewBox="0 0 14 14" id="edit" xmlns="http://www.w3.org/2000/svg"><path d="M6.014 4.027L9.16 6.571a.18.18 0 01.03.25l-3.732 4.862c-.234.3-.58.47-.95.477l-2.037.025a.232.232 0 01-.229-.182L1.78 9.99c-.08-.37 0-.753.235-1.047l3.75-4.886a.175.175 0 01.249-.03z"/><path opacity=".4" d="M10.57 5.055l-.607.757a.174.174 0 01-.247.029c-.738-.597-2.627-2.13-3.15-2.554a.18.18 0 01-.026-.252l.585-.727c.531-.683 1.457-.746 2.204-.15l.858.683c.352.276.587.64.667 1.022.092.421-.006.834-.284 1.192z"/></symbol><symbol viewBox="0 0 22 14" id="eye" xmlns="http://www.w3.org/2000/svg"><path fill-rule="evenodd" clip-rule="evenodd" d="M1.279 7c.093.163.231.393.417.67.387.574.976 1.342 1.782 2.11 1.61 1.532 4.07 3.053 7.522 3.053s5.913-1.521 7.522-3.053a12.859 12.859 0 001.782-2.11c.186-.277.325-.507.417-.67a10.553 10.553 0 00-.417-.67 12.859 12.859 0 00-1.782-2.11c-1.61-1.532-4.07-3.053-7.522-3.053S5.087 2.688 3.478 4.22a12.856 12.856 0 00-1.782 2.11 10.88 10.88 0 00-.417.67zm20.089 0c.506-.26.505-.261.505-.261v-.001l-.001-.002-.003-.005-.008-.018-.032-.062a11.641 11.641 0 00-.596-.987 14.011 14.011 0 00-1.944-2.301C17.529 1.687 14.806 0 11 0S4.472 1.687 2.711 3.363A14.015 14.015 0 00.767 5.665a11.672 11.672 0 00-.596.986 4.56 4.56 0 00-.032.062l-.008.018-.003.005v.002H.126L.632 7l-.506-.26L0 7l.126.26L.632 7c-.506.26-.505.261-.505.261v.001l.001.002.003.005.008.018.032.062c.028.052.068.127.12.22.107.188.264.452.476.766a14.015 14.015 0 001.944 2.302C4.471 12.313 7.194 14 11 14s6.528-1.687 8.289-3.363a14.012 14.012 0 001.944-2.302 11.639 11.639 0 00.596-.986l.032-.062.008-.018.003-.005v-.002h.001L21.368 7zm0 0l.506.26L22 7l-.127-.26-.505.26z"/><path fill-rule="evenodd" clip-rule="evenodd" d="M11 4.23a2.77 2.77 0 100 5.54 2.77 2.77 0 000-5.54zM7 7a4 4 0 118 0 4 4 0 01-8 0z"/></symbol><symbol viewBox="0 0 22 22" id="facebook" xmlns="http://www.w3.org/2000/svg"><path d="M22 11c0-6.075-4.925-11-11-11S0 4.925 0 11c0 5.49 4.023 10.041 9.281 10.866V14.18H6.488V11h2.793V8.577c0-2.757 1.643-4.28 4.155-4.28 1.203 0 2.462.215 2.462.215v2.707h-1.387c-1.366 0-1.792.848-1.792 1.718V11h3.05l-.487 3.18h-2.563v7.686C17.977 21.041 22 16.49 22 11z"/></symbol><symbol viewBox="0 0 16 13" id="fail" xmlns="http://www.w3.org/2000/svg"><path d="M15.914 5.837c-.286-1.66-1.131-3.029-2.534-4.105C11.905.578 10.108 0 7.99 0 5.87 0 4.072.571 2.6 1.712 1.195 2.802.357 4.178.085 5.837a3.774 3.774 0 00-.086.78c0 1.09.394 2.043 1.182 2.86.787.818 1.896 1.415 3.329 1.79v.293c0 .363.136.668.408.915a1.61 1.61 0 001.009.409c.415.026.722-.04.923-.195.315.207.666.311 1.053.311.357 0 .687-.097.987-.291.201.142.494.2.881.175.4-.04.737-.179 1.01-.419.271-.24.407-.542.407-.905v-.213c1.546-.364 2.742-.974 3.587-1.831.816-.817 1.224-1.783 1.224-2.9a3.82 3.82 0 00-.086-.779zM6.143 7.716c-.43.448-.946.671-1.547.671S3.48 8.164 3.05 7.716a2.263 2.263 0 01-.644-1.626c0-.635.215-1.177.644-1.624.43-.447.945-.67 1.546-.67.601 0 1.117.223 1.547.67.43.447.644.99.644 1.624 0 .636-.215 1.178-.644 1.626zm1.868 2.579c-.358 0-.623-.084-.795-.25a.531.531 0 01-.15-.386c0-.243.104-.487.311-.731.208-.243.412-.365.612-.365s.39.134.57.405c.178.269.268.525.268.77 0 .372-.272.557-.816.557zm4.735-2.58a2.055 2.055 0 01-1.557.672 2.03 2.03 0 01-1.535-.671A2.281 2.281 0 019.02 6.09c0-.635.211-1.177.634-1.624a2.033 2.033 0 011.535-.67c.616 0 1.135.223 1.557.67.422.447.634.99.634 1.624 0 .636-.212 1.178-.634 1.626z"/></symbol><symbol viewBox="0 0 24 24" id="file-blank"><path d="M18 22H6a2 2 0 01-2-2V4a2 2 0 012-2h7a.09.09 0 01.032.006.15.15 0 00.03.006c.088.006.175.023.259.051l.028.009a.988.988 0 01.359.228l6 6a.987.987 0 01.2.293c.01.022.017.045.025.068l.009.026c.028.083.044.17.049.258l.007.027C20 8.982 20 8.991 20 9v11a2 2 0 01-2 2zM6 4v16h12V10h-5a1 1 0 01-1-1V4H6zm8 1.414V8h2.586L14 5.414z"/></symbol><symbol viewBox="0 0 20 19" id="fullscreen" xmlns="http://www.w3.org/2000/svg"><path d="M3.959 1.833h2.374a.917.917 0 100-1.833H2.666A1.833 1.833 0 00.833 1.833V5.5a.917.917 0 001.833 0V3.126L6.6 7.068a.917.917 0 001.302 0 .917.917 0 000-1.302L3.959 1.833zM17.333 0h-3.666a.917.917 0 000 1.833h2.374l-3.942 3.933a.918.918 0 00.299 1.502.917.917 0 001.003-.2l3.932-3.942V5.5a.917.917 0 001.834 0V1.833A1.833 1.833 0 0017.333 0zM6.599 11.266l-3.933 3.942v-2.375a.917.917 0 00-1.833 0V16.5a1.833 1.833 0 001.833 1.833h3.667a.917.917 0 000-1.833H3.959L7.9 12.568a.92.92 0 10-1.302-1.302zm11.651.651a.917.917 0 00-.917.916v2.375L13.4 11.266a.92.92 0 00-1.301 1.302L16.04 16.5h-2.374a.917.917 0 000 1.833h3.667a1.833 1.833 0 001.833-1.833v-3.667a.917.917 0 00-.916-.916z"/></symbol><symbol viewBox="0 0 24 21" id="gift" xmlns="http://www.w3.org/2000/svg"><path d="M9.6 5.308V10.5H2.4a2.435 2.435 0 01-1.697-.683A2.3 2.3 0 010 8.167V5.833a2.3 2.3 0 01.703-1.65A2.435 2.435 0 012.4 3.5h4.8c.994.309 1.844.95 2.4 1.808zm12-1.808h-4.8a4.496 4.496 0 00-2.4 1.808V10.5h7.2c.636 0 1.247-.246 1.697-.683.45-.438.703-1.031.703-1.65V5.833c0-.619-.253-1.212-.703-1.65A2.435 2.435 0 0021.6 3.5zM1.2 11.457v7.21c0 .618.253 1.212.703 1.65.45.437 1.06.683 1.697.683h6v-9.333H2.4a3.41 3.41 0 01-1.2-.21zm20.4.21h-7.2V21h6c.637 0 1.247-.246 1.697-.683.45-.438.703-1.032.703-1.65v-7.21a3.41 3.41 0 01-1.2.21zM16.8 0a7.248 7.248 0 00-2.67.831A7.054 7.054 0 0012 2.601 7.054 7.054 0 009.87.832 7.248 7.248 0 007.2 0a1.22 1.22 0 00-.849.342A1.15 1.15 0 006 1.167c0 .31.126.606.351.825.226.218.53.341.849.341.763.16 1.48.479 2.102.936A5.233 5.233 0 0110.8 4.982V21h2.4V4.982a5.232 5.232 0 011.498-1.713 5.412 5.412 0 012.102-.936c.318 0 .623-.123.848-.341A1.15 1.15 0 0018 1.167c0-.31-.126-.606-.352-.825A1.217 1.217 0 0016.8 0z"/></symbol><symbol viewBox="0 0 24 24" id="globe" xmlns="http://www.w3.org/2000/svg"><path d="M7.798 12c0 1.2 0 2.4.144 3.6h-.276c-1.3.37-2.545.914-3.698 1.62-.69.414-1.338.897-1.933 1.44a11.996 11.996 0 010-13.368 12.078 12.078 0 001.933 1.44A14.76 14.76 0 007.654 8.4h.288c-.096 1.2-.144 2.4-.144 3.6zM2.755 4.344c.592.55 1.24 1.037 1.933 1.452A13.342 13.342 0 007.99 7.2c.136-1.436.377-2.86.72-4.26.213-.952.532-1.878.949-2.76a12.067 12.067 0 00-6.904 4.164zM14.293.216c.417.882.736 1.808.949 2.76.341 1.389.582 2.8.72 4.224a13.425 13.425 0 003.314-1.428 11.463 11.463 0 001.969-1.428A12.067 12.067 0 0014.293.216zm-5.078 16.26c.153 1.67.45 3.325.888 4.944A9.383 9.383 0 0011.172 24h1.656a9.38 9.38 0 001.069-2.556c.438-1.62.735-3.273.888-4.944a14.042 14.042 0 00-5.57-.024zm5.667-7.752a15.136 15.136 0 01-5.763 0A40.314 40.314 0 008.999 12c0 1.152 0 2.256.12 3.288a15.257 15.257 0 015.763 0c.084-1.02.12-2.124.12-3.276 0-1.152-.037-2.268-.12-3.288zm-.985-6.144A9.384 9.384 0 0012.828 0h-1.656a9.38 9.38 0 00-1.069 2.556A29.15 29.15 0 009.215 7.5a14.04 14.04 0 005.57 0 29.15 29.15 0 00-.888-4.92zm8.068 2.736a12.078 12.078 0 01-1.933 1.44A14.842 14.842 0 0116.334 8.4h-.276c.096 1.2.144 2.4.144 3.6 0 1.2 0 2.4-.144 3.6l.288.072c1.297.37 2.537.914 3.686 1.62.69.414 1.338.897 1.933 1.44a11.996 11.996 0 000-13.368v-.048zm-2.653 12.888A13.339 13.339 0 0016.01 16.8a29.664 29.664 0 01-.72 4.26 13.19 13.19 0 01-.949 2.76 12.067 12.067 0 006.952-4.128 11.467 11.467 0 00-1.981-1.488zm-10.554 2.82a29.65 29.65 0 01-.72-4.224 13.428 13.428 0 00-3.314 1.428 11.47 11.47 0 00-1.969 1.428 12.067 12.067 0 006.952 4.128 13.195 13.195 0 01-.949-2.76z"/></symbol><symbol viewBox="0 0 22 22" id="google" xmlns="http://www.w3.org/2000/svg"><g clip-path="url(#bea)"><path fill-rule="evenodd" clip-rule="evenodd" d="M15.44 6.002a5.978 5.978 0 00-4.22-1.649c-2.87 0-5.307 1.936-6.176 4.543a6.589 6.589 0 000 4.212h.004c.873 2.603 3.306 4.539 6.176 4.539 1.481 0 2.753-.379 3.739-1.048v-.003a5.09 5.09 0 002.199-3.343H11.22V9.017h10.376c.129.736.19 1.488.19 2.236 0 3.345-1.196 6.174-3.277 8.09l.003.002C16.689 21.024 14.187 22 11.22 22a11 11 0 01-9.83-6.059 11.01 11.01 0 010-9.878A10.998 10.998 0 0111.22 0a10.572 10.572 0 017.36 2.862l-3.14 3.14z"/></g><defs><clipPath id="bea"><path d="M0 0h22v22H0z"/></clipPath></defs></symbol><symbol viewBox="0 0 22 24" id="icon" xmlns="http://www.w3.org/2000/svg"><path fill-rule="evenodd" clip-rule="evenodd" d="M5.132 7.881C2.35 12.231.042 15.876.002 15.98c-.05.135.555.549 2.135 1.463 1.212.702 2.28 1.348 2.372 1.435.138.13-.055.618-1.056 2.677C2.78 22.941 2.282 24.04 2.346 24c.153-.097 4.91-5.434 4.952-5.555.018-.05-.8-.616-1.818-1.259-1.018-.642-1.874-1.207-1.903-1.255-.029-.048 1.46-3.646 3.31-7.994S10.237.016 10.22 0c-.016-.016-2.306 3.53-5.088 7.881zm9.774-.063c1.851 4.35 3.365 7.97 3.363 8.044-.002.073-.832.655-1.845 1.293-1.013.637-1.841 1.218-1.841 1.29 0 .105 3.446 4.032 4.803 5.474.192.204-.176-.673-.973-2.32l-1.282-2.646 2.257-1.315a186.247 186.247 0 002.422-1.425c.123-.083-1.151-2.17-4.94-8.089-2.808-4.387-5.156-8.03-5.218-8.096-.062-.066 1.402 3.44 3.254 7.79zm-4.777 1.809c-1.839.62-2.76 2.575-2.033 4.315.884 2.116 3.518 2.666 5.077 1.06.825-.848 1.105-2.072.753-3.282-.192-.661-.891-1.492-1.542-1.834-.563-.296-1.745-.432-2.255-.26z"/></symbol><symbol viewBox="0 0 14 14" id="image" xmlns="http://www.w3.org/2000/svg"><path opacity=".4" d="M9.527 12.833H4.47c-1.977 0-3.305-1.386-3.305-3.45V4.617c0-2.064 1.328-3.452 3.305-3.452h5.056c1.978 0 3.306 1.388 3.306 3.452v4.764c0 2.065-1.329 3.451-3.306 3.451z"/><path fill-rule="evenodd" clip-rule="evenodd" d="M6.558 5.06a1.451 1.451 0 11-1.45-1.45c.8 0 1.45.651 1.45 1.45zm4.758 3.158c.136.131.233.282.297.442.194.486.094 1.07-.114 1.55a2.122 2.122 0 01-1.312 1.193 2.67 2.67 0 01-.816.121H4.482c-.486 0-.917-.113-1.27-.325-.22-.133-.26-.44-.096-.64.274-.332.545-.665.818-1.002.52-.644.871-.83 1.26-.667.159.068.317.17.48.277.436.288 1.04.684 1.838.255.544-.298.86-.808 1.136-1.251l.005-.01.056-.088c.093-.151.185-.3.29-.438.13-.17.61-.7 1.231-.322.396.238.73.56 1.086.905z"/></symbol><symbol viewBox="0 0 24 24" id="locked" xmlns="http://www.w3.org/2000/svg"><path d="M19.501 9.94h-.966V6.535A6.542 6.542 0 0011.998 0a6.542 6.542 0 00-6.534 6.535V9.94h-.967c-.765 0-1.385.62-1.385 1.385v11.291c0 .764.62 1.384 1.385 1.384H19.5c.765 0 1.384-.62 1.384-1.384V11.325c0-.765-.62-1.385-1.384-1.385zm-6.028 9.916h-2.947l.527-2.513a1.763 1.763 0 01-.822-1.49 1.769 1.769 0 013.537 0c0 .628-.33 1.176-.823 1.49l.528 2.513zm2.73-9.916H7.797V6.535a4.208 4.208 0 014.202-4.203 4.208 4.208 0 014.204 4.203V9.94z"/></symbol><symbol viewBox="0 0 15 16" id="logout" xmlns="http://www.w3.org/2000/svg"><path opacity=".4" d="M0 3.835C0 1.997 1.523.5 3.393.5h3.721C8.981.5 10.5 1.992 10.5 3.828v8.337c0 1.839-1.523 3.335-3.394 3.335h-3.72C1.52 15.5 0 14.008 0 12.172V3.835z"/><path d="M14.835 7.591L12.7 5.409a.552.552 0 00-.796.002.589.589 0 00.002.817l1.169 1.194H5.662A.57.57 0 005.1 8c0 .32.252.577.562.577h7.414l-1.17 1.195a.589.589 0 000 .817.555.555 0 00.795.001l2.134-2.18a.587.587 0 000-.819z"/></symbol><symbol viewBox="0 0 42 45" id="maingame" xmlns="http://www.w3.org/2000/svg"><path fill-rule="evenodd" clip-rule="evenodd" d="M9.879 14.777C4.523 22.935.079 29.768.006 29.962c-.097.253 1.065 1.03 4.107 2.744 2.333 1.316 4.389 2.526 4.567 2.69.265.243-.105 1.16-2.033 5.02-1.296 2.598-2.255 4.66-2.13 4.582.294-.182 9.452-10.189 9.532-10.415.034-.094-1.542-1.156-3.5-2.36-1.959-1.204-3.607-2.264-3.663-2.354-.056-.09 2.812-6.836 6.372-14.989S19.704.031 19.674 0c-.03-.03-4.439 6.619-9.795 14.777zm18.814-.118c3.565 8.157 6.479 14.944 6.475 15.082-.004.137-1.602 1.228-3.551 2.424-1.95 1.196-3.545 2.284-3.545 2.42 0 .195 6.634 7.56 9.247 10.264.369.382-.34-1.263-1.874-4.35l-2.468-4.963 4.344-2.465c2.39-1.356 4.488-2.558 4.663-2.672.238-.155-2.216-4.068-9.508-15.166C27.07 7.007 22.549.175 22.43.052c-.12-.123 2.699 6.45 6.263 14.607zm-9.195 3.39c-3.54 1.164-5.312 4.83-3.912 8.092 1.701 3.967 6.772 4.999 9.773 1.99 1.587-1.592 2.127-3.886 1.449-6.156-.37-1.24-1.716-2.798-2.97-3.44-1.082-.553-3.359-.808-4.34-.485z"/></symbol><symbol viewBox="0 0 15 17" id="mark" xmlns="http://www.w3.org/2000/svg"><path d="M14 15.086V2a1 1 0 00-1-1H2a1 1 0 00-1 1v13.086c0 .89 1.077 1.337 1.707.707l4.086-4.086a1 1 0 011.414 0l4.086 4.086c.63.63 1.707.184 1.707-.707z"/></symbol><symbol viewBox="0 0 42 44" id="media" xmlns="http://www.w3.org/2000/svg"><path d="M19.807 0L6.789 29.06l7.41 4.5L4.37 44l4.912-9.462L0 29.408 19.807 0zm2.381 0l13.018 29.06-7.405 4.5L37.63 44l-4.913-9.462L42 29.408 22.188 0z"/><path d="M21.396 28.605c-3.679-.171-6.453-1.758-8.227-4.935a.503.503 0 01-.015-.418c1.424-2.632 3.645-4.261 6.629-4.798 3.994-.722 8.027 1.259 9.854 4.783a.524.524 0 01-.004.428c-1.492 2.693-3.771 4.322-6.881 4.812-.447.066-.91.085-1.356.128zm-.005-9.453c-2.44.005-4.383 1.915-4.388 4.299-.005 2.385 1.973 4.294 4.432 4.285 2.43-.01 4.359-1.929 4.349-4.332-.01-2.357-1.968-4.257-4.393-4.252z"/><path d="M18.636 22.886c.918.527 1.618.527 2.235.01.622-.523.71-1.188.287-2.195 1.006-.2 2.245.46 2.78 1.487a2.733 2.733 0 01-.628 3.315 2.87 2.87 0 01-3.435.295c-1.006-.623-1.56-1.9-1.24-2.912z"/></symbol><symbol viewBox="0 0 22 20" id="message" xmlns="http://www.w3.org/2000/svg"><path d="M21.834 14.268a5.467 5.467 0 01-5.45 5.482H5.638c-3.012 0-5.471-2.437-5.471-5.46v-.01s.006-4.796.015-7.207a.54.54 0 01.875-.425c2.574 2.042 7.178 5.766 7.235 5.815a4.41 4.41 0 002.74.964 4.35 4.35 0 002.742-.976c.057-.038 4.557-3.65 7.17-5.726a.541.541 0 01.879.423c.01 2.393.01 7.12.01 7.12z"/><path d="M21.266 3.146A5.455 5.455 0 0016.449.25H5.638A5.455 5.455 0 00.82 3.146a.935.935 0 00.24 1.168l8.043 6.434a3.062 3.062 0 001.929.682h.022c.683 0 1.365-.227 1.929-.682l8.043-6.434c.35-.28.45-.772.24-1.168z"/></symbol><symbol viewBox="0 0 32 32" id="mortal-kombat" xmlns="http://www.w3.org/2000/svg"><path d="M14.547 1.625l-4.774 6.32h1.786v17.196l2.96 5.23h.215V1.625zM2.332 23.996l-1 1.145h5.106l-1.012-1.145V16.72l3.047 8.258 2.394-6.575v-6.84L8.484 18.68 5.285 9.242H1.332l1 1.13zM17.047 7.95l4.773-6.324h.188v23.508l-2.903 5.238h-.214l-.059-5.23V7.945h-1.785zm8.207 1.293h5.262l-1.774 1.27-3.738 5.804 4.578 7.68 1.086.934v.21h-3.797l-3.621-6.152-.371.555h-.215v-4.516l3.074-4.75-.484-.765zm0 0"/></symbol><symbol viewBox="0 0 24 24" id="multiple-users" xmlns="http://www.w3.org/2000/svg"><path d="M14.483 5.368a4.361 4.361 0 012.03 3.24A3.5 3.5 0 0018 8.94a3.52 3.52 0 10-3.517-3.573zm-2.306 7.207a3.52 3.52 0 100-7.04 3.52 3.52 0 000 7.04zm1.493.24h-2.987a4.512 4.512 0 00-4.506 4.507v3.652l.009.058.251.078c2.372.741 4.432.988 6.128.988 3.313 0 5.232-.944 5.35-1.004l.236-.119h.025v-3.653a4.51 4.51 0 00-4.506-4.507zm5.824-3.634H16.53a4.337 4.337 0 01-1.339 3.022 5.355 5.355 0 013.825 5.124v1.126c2.926-.107 4.613-.937 4.724-.992l.235-.12H24v-3.654a4.512 4.512 0 00-4.506-4.506zM6 8.941c.688 0 1.329-.2 1.872-.543A4.356 4.356 0 019.51 5.62c.004-.066.01-.131.01-.198A3.52 3.52 0 106 8.942zm3.16 3.261a4.34 4.34 0 01-1.337-3.004c-.11-.008-.219-.017-.33-.017H4.506A4.512 4.512 0 000 13.688v3.653l.01.056.25.08c1.903.593 3.601.867 5.076.953v-1.103a5.356 5.356 0 013.826-5.125z"/></symbol><symbol viewBox="0 0 24 21" id="net" xmlns="http://www.w3.org/2000/svg"><path d="M7 17.5a3.5 3.5 0 11-7 0 3.5 3.5 0 017 0zm8-14a3.5 3.5 0 11-7 0 3.5 3.5 0 017 0zm0 14a3.5 3.5 0 11-7 0 3.5 3.5 0 017 0zm9 0a3.5 3.5 0 11-7 0 3.5 3.5 0 017 0z"/><path fill-rule="evenodd" clip-rule="evenodd" d="M10.859 11.95V16h1.5v-4.05H19c.69 0 1.25.56 1.25 1.25V16h1.5v-2.8A2.75 2.75 0 0019 10.45h-6.64L12.358 6h-1.5v4.45h-5.86A2.748 2.748 0 002.25 13.2V16h1.5v-2.8c0-.691.559-1.25 1.248-1.25h5.86z"/></symbol><symbol viewBox="0 -56 512 512" id="page-adapt" xmlns="http://www.w3.org/2000/svg"><path d="M496.969 104.203h-80.156c-8.563 0-16.032 6.465-16.032 15.031v17.032H312.61c-8.562 0-16.03 6.464-16.03 15.03v169.329H16.03c-.277 0-1-.723-1-1v-32.063h265.516v-15.03H15.03v-257.5c0-.278.723 0 1 0h432.844c.277 0 0-.278 0 0v72.14h15.031v-72.14C463.906 6.464 457.441 0 448.875 0H16.031C7.47 0 0 6.465 0 15.031v304.594c0 8.563 7.469 16.031 16.031 16.031H184.36v49.094h-32.062v15.031H312.61V384.75h-33.062v-49.094h17.031v16.031c0 8.563 7.469 16.032 16.031 16.032h136.266c8.566 0 15.031-7.469 15.031-16.031v-56.11h33.063c8.566 0 15.031-7.469 15.031-16.031V119.234c0-8.566-6.465-15.03-15.031-15.03zM264.516 384.75H199.39v-49.094h65.125zm152.296-265.516h80.157c.277 0 0-.277 0 0v17.032h-81.156v-17.032c0-.277.726 0 1 0zm-1 32.063h81.157v97.187h-81.156zm33.063 201.39H312.609c-.273 0-1-.722-1-1v-16.03h137.266v16.03c0 .278.277 1 0 1zm0-32.062H311.609V151.297c0-.277.727 0 1 0h88.172v128.25c0 8.562 7.469 16.031 16.031 16.031h32.063zm48.094-40.078h-80.156c-.274 0-1-.723-1-1v-16.031h81.156v16.03c0 .278.277 1 0 1zm0 0"/><path d="M192.375 240.469h16.031V255.5h-16.031zm32.063 0h16.03V255.5h-16.03zm32.062 0h16.031V255.5H256.5zM47.094 71.14V47.095H72.14V32.062H32.062v39.079zm273.531 120.235h15.031v-16.031h17.031v-15.031h-32.062zm104.203-31.062v31.062h15.031v-16.031h17.032v-15.031zm0 0"/></symbol><symbol viewBox="0 0 24 24" id="place" xmlns="http://www.w3.org/2000/svg"><path d="M15.985 18.527a5.82 5.82 0 00.864-.852c.17-.213.363-.406.575-.576a3.45 3.45 0 01.731-.373 7.953 7.953 0 001.199-.588 2.82 2.82 0 00.72-.696 3.91 3.91 0 00.623-1.932v-.204c.013-.28.053-.557.12-.829a5.24 5.24 0 01.371-.708 4.18 4.18 0 00.756-2.16 4.18 4.18 0 00-.756-2.16 5.176 5.176 0 01-.371-.709 4.393 4.393 0 01-.12-.828 4.265 4.265 0 00-.648-2.148 4.208 4.208 0 00-1.858-1.285 3.426 3.426 0 01-.731-.372 4.304 4.304 0 01-.576-.576 4.22 4.22 0 00-1.798-1.38 4.155 4.155 0 00-2.218 0 3.712 3.712 0 01-1.702 0A4.165 4.165 0 008.948.15 4.22 4.22 0 007.15 1.53c-.17.213-.363.406-.576.576a3.427 3.427 0 01-.73.372A4.208 4.208 0 003.949 3.75a4.265 4.265 0 00-.647 2.15c-.014.28-.054.557-.12.828-.106.245-.23.482-.372.708a4.18 4.18 0 00-.755 2.16 4.18 4.18 0 00.755 2.161c.142.226.266.463.372.708.066.272.106.55.12.829v.204a3.94 3.94 0 00.623 1.944c.196.273.44.509.72.696.363.227.743.423 1.138.588.258.095.503.22.731.373.21.173.403.366.576.576.257.313.546.599.863.852.274.236.592.415.935.528.467.137.958.17 1.439.096a7.11 7.11 0 00.779-.156 3.712 3.712 0 011.702 0 6.9 6.9 0 00.78.156c.18.012.36.012.54 0 .3.002.6-.042.886-.132.354-.098.684-.265.971-.492zm-4.004-4.13a4.79 4.79 0 01-4.43-2.963 4.806 4.806 0 011.04-5.232 4.794 4.794 0 018.185 3.395 4.804 4.804 0 01-1.404 3.395c-.9.9-2.119 1.406-3.39 1.406zm-3.429 5.81c.39.112.794.169 1.2.168l-1.5 2.965a1.2 1.2 0 01-.886.648h-.18a1.2 1.2 0 01-.863-.36l-2.014-2.029H1.192a1.329 1.329 0 01-1.031-.564 1.201 1.201 0 010-1.2l2.397-4.657c.121.333.286.648.492.936.29.392.642.732 1.043 1.008.427.26.872.488 1.33.685.096 0 .384.168.504.24.12.072.216.228.36.384.266.364.567.702.899 1.008.401.342.865.603 1.366.768zm15.238.828a1.258 1.258 0 01-1.02.564h-3.116l-2.014 2.04a1.198 1.198 0 01-.864.361h-.18a1.2 1.2 0 01-.886-.648l-1.475-2.953a4.24 4.24 0 001.199-.192c.47-.15.906-.39 1.283-.708a7.2 7.2 0 001.055-1.032c.115-.151.248-.288.395-.408l.528-.24a10.39 10.39 0 001.282-.672 4.2 4.2 0 001.02-.985c.211-.295.38-.618.503-.96l2.398 4.67a1.2 1.2 0 01-.108 1.163z"/></symbol><symbol viewBox="0 0 44 44" id="play" xmlns="http://www.w3.org/2000/svg"><path d="M22 2.75C11.37 2.75 2.75 11.37 2.75 22S11.37 41.25 22 41.25 41.25 32.63 41.25 22 32.63 2.75 22 2.75zm6.192 19.547l-9.385 6.827a.344.344 0 01-.545-.28V15.199a.344.344 0 01.545-.28l9.385 6.824a.34.34 0 010 .555z"/></symbol><symbol viewBox="0 0 12 16" id="profile" xmlns="http://www.w3.org/2000/svg"><path d="M5.998 10.381c-3.235 0-5.998.51-5.998 2.55S2.746 15.5 5.998 15.5c3.234 0 5.997-.51 5.997-2.55s-2.743-2.57-5.997-2.57z"/><path opacity=".4" d="M5.997 8.438a3.955 3.955 0 003.97-3.969A3.955 3.955 0 005.996.5a3.955 3.955 0 00-3.969 3.969 3.955 3.955 0 003.97 3.969z"/></symbol><symbol viewBox="0 0 26 26" id="question" xmlns="http://www.w3.org/2000/svg"><path fill-rule="evenodd" clip-rule="evenodd" d="M8.31 2.112h9.392c3.672 0 6.132 2.514 6.132 6.252v8.628c0 3.728-2.46 6.242-6.132 6.242H8.309c-3.672 0-6.142-2.514-6.142-6.242V8.364c0-3.738 2.47-6.252 6.142-6.252zm5.671 12.312h-2.416l-.015-.301c-.116-1.114.239-1.806 1.312-2.409 1.05-.602 1.32-.925 1.32-1.572v-.015c0-.61-.517-1.024-1.235-1.024-.741 0-1.25.504-1.274 1.159v.053H9.164v-.06c.03-1.89 1.49-3.199 3.96-3.199 2.34 0 3.876 1.197 3.876 3.003v.015c0 1.106-.533 1.874-1.668 2.513-1.058.595-1.35.949-1.35 1.618v.219zm.301 2.333c0 .76-.656 1.354-1.459 1.354-.81 0-1.459-.594-1.459-1.354 0-.753.649-1.348 1.46-1.348.802 0 1.458.595 1.458 1.348z"/></symbol><symbol viewBox="0 0 21 26" id="replacement" xmlns="http://www.w3.org/2000/svg"><path d="M2.358 12.74a8.689 8.689 0 011.382-4.7 8.315 8.315 0 013.673-3.129 8.03 8.03 0 014.74-.516 8.175 8.175 0 014.225 2.27h-3.407c-.313 0-.613.128-.834.356a1.234 1.234 0 00-.346.86c0 .321.125.63.346.858.22.228.52.356.834.356h5.99c.296-.025.572-.163.773-.388.201-.226.312-.52.311-.827V1.806c0-.323-.124-.632-.345-.86a1.162 1.162 0 00-.834-.355c-.312 0-.612.128-.834.356a1.234 1.234 0 00-.345.859v2.818a10.483 10.483 0 00-5.432-2.652 10.329 10.329 0 00-5.96.814 10.705 10.705 0 00-4.574 4.019A11.174 11.174 0 000 12.74c0 .322.124.63.345.859.221.227.521.355.834.355.313 0 .613-.128.834-.355.221-.228.345-.537.345-.86zm17.462-.695a1.16 1.16 0 00-.833.356 1.234 1.234 0 00-.346.86 8.689 8.689 0 01-1.381 4.699 8.315 8.315 0 01-3.673 3.129 8.029 8.029 0 01-4.74.515 8.176 8.176 0 01-4.226-2.27H8.03c.313 0 .613-.127.834-.355a1.24 1.24 0 000-1.718 1.162 1.162 0 00-.834-.356H2.04a1.166 1.166 0 00-.774.388c-.2.226-.312.52-.31.827v6.074c0 .322.123.631.344.86.222.227.522.355.834.355.313 0 .613-.128.834-.356.221-.228.345-.537.345-.859v-2.818a10.483 10.483 0 005.433 2.652 10.33 10.33 0 005.96-.814 10.705 10.705 0 004.574-4.019A11.173 11.173 0 0021 13.26c0-.322-.124-.63-.345-.859a1.162 1.162 0 00-.834-.356z"/></symbol><symbol viewBox="0 0 16 20" id="rules" xmlns="http://www.w3.org/2000/svg"><path d="M15 0H3a3 3 0 00-3 3v14a3 3 0 003 3h11a2 2 0 002-2V1a1 1 0 00-1-1zm-4 13l-3-2-3 2V6h6v7zm3-9H3a1 1 0 01-1-1 1 1 0 01.31-.71A.93.93 0 013 2h11v2z"/></symbol><symbol viewBox="0 0 22 22" id="search" xmlns="http://www.w3.org/2000/svg"><path fill-rule="evenodd" clip-rule="evenodd" d="M10.083 3.667a6.417 6.417 0 100 12.833 6.417 6.417 0 000-12.833zm-8.25 6.416a8.25 8.25 0 1116.5 0 8.25 8.25 0 01-16.5 0z"/><path fill-rule="evenodd" clip-rule="evenodd" d="M14.935 14.935a.917.917 0 011.296 0l3.667 3.667a.917.917 0 11-1.296 1.296l-3.667-3.667a.917.917 0 010-1.296z"/></symbol><symbol viewBox="0 0 15 16" id="setting" xmlns="http://www.w3.org/2000/svg"><path d="M7.509 10.123c-1.204 0-2.177-.938-2.177-2.115 0-1.178.973-2.123 2.177-2.123 1.203 0 2.154.945 2.154 2.123 0 1.177-.95 2.115-2.154 2.115z"/><path opacity=".4" d="M14.423 9.777a1.727 1.727 0 00-.621-.592c-.215-.105-.353-.277-.476-.48-.39-.645-.16-1.492.491-1.875a1.52 1.52 0 00.567-2.123l-.513-.885a1.584 1.584 0 00-2.154-.57 1.48 1.48 0 01-1.932-.517 1.16 1.16 0 01-.176-.66 1.334 1.334 0 00-.207-.795A1.614 1.614 0 008.038.5h-1.08a1.646 1.646 0 00-1.357.78c-.146.225-.23.502-.215.795a1.16 1.16 0 01-.176.66 1.472 1.472 0 01-1.924.518 1.593 1.593 0 00-2.162.57l-.513.884a1.533 1.533 0 00.567 2.123c.652.383.881 1.23.498 1.875-.13.203-.268.375-.483.48-.26.143-.49.367-.613.592-.283.466-.268 1.05.016 1.538l.528.9a1.6 1.6 0 001.365.78c.26 0 .567-.075.812-.225.192-.127.422-.172.675-.172.758 0 1.395.622 1.41 1.364 0 .863.705 1.538 1.594 1.538h1.043c.881 0 1.586-.675 1.586-1.537a1.431 1.431 0 011.418-1.365c.245 0 .475.044.675.172a1.6 1.6 0 00.812.225c.544 0 1.073-.3 1.357-.78l.536-.9c.276-.502.3-1.072.016-1.537z"/></symbol><symbol viewBox="0 0 24 24" id="test" xmlns="http://www.w3.org/2000/svg"><path d="M11.935 2.049c.319-.11.667-.018.96.126.203.131.408.264.636.35l.071.13-.035.088c.163.37.267.81.109 1.2-.108.13-.295.151-.447.202 0 .188.03.374.046.561.324.052.599-.173.92-.151.043-.18.077-.362.135-.539.066.117.069.252.07.383.084.024.169.045.255.066l.001.13c1.407.007 2.813-.007 4.22.007l-.013.193h.148c-.002-.255 0-.512-.001-.768l.14-.004.004.604.123.151.092-.108c.107.1.047.237.042.36.393-.005.791.022 1.184-.01l.117-.086.162.063c.177-.004.355-.004.533-.005l-.01.275c-.23-.004-.458-.009-.684.03-.145-.125-.34-.085-.516-.09-.27.013-.548-.035-.81.051a.57.57 0 01-.462-.055c-.033.082.017.265-.12.258-.543.007-1.085-.005-1.627.004-.074.039-.15.076-.223.112-.079.234-.303.39-.494.532-.024.359.118.694.173 1.042-.107.03-.214.062-.32.097-.152.358-.059.847-.41 1.097-.269.156-.447.497-.81.443.184.154-.05.106-.026-.017-.657-.058-1.21-.444-1.78-.737-.027.16-.069.319-.112.476a.53.53 0 01.434.423c.07.485-.07.966-.067 1.452.015.285-.107.546-.26.78-.133.15-.344-.005-.504-.027l-.107.212c.046.19.065.388.129.574.357.395.682.824.932 1.296.257.534.486 1.082.686 1.64.02.108.122.147.211.187l.035.337.107.153c.022.69-.063 1.376-.17 2.057-.066.307.114.607.04.916.01.158-.1.278-.15.418-.01.326-.027.657.009.983.025.239.227.393.364.571.15.159.275.372.502.429.213.063.416.156.604.277.058.142.047.292.02.44-.41.075-.828.037-1.242.044-.319.016-.603-.155-.913-.19-.3-.008-.666.14-.897-.128.098-.372.106-.773.285-1.12.057-.394-.052-.793-.029-1.19l-.137-.115c.025-.26-.103-.49-.146-.738-.028-.363-.06-.725-.103-1.086-.033-.175.058-.336.182-.453.011-.203.039-.404.058-.605-.03-.13-.134-.228-.201-.34-.225.095-.528.05-.661-.17-.317-.47-.633-.942-.953-1.41-.126-.01-.259.004-.377-.046-.135-.14-.206-.325-.292-.494-.124.14-.115.353-.262.48-.31.297-.393.735-.555 1.117-.124.247-.054.546-.193.787-.074.13-.26.156-.31.304-.063.16-.139.326-.29.423-.162.107-.206.31-.278.478-.067.154.032.317.009.475-.104.505-.425.926-.56 1.42-.061.222-.15.473-.408.52-.294.526-.457 1.17-.29 1.761.102.186.096.396.065.6-.468.037-.948.1-1.407-.03-.108-.214-.092-.465-.07-.696.142-.606.33-1.202.445-1.814-.144-.128-.11-.324-.107-.496-.005-.32.212-.575.363-.837.057-.27.03-.559.17-.806.163-.309.302-.643.554-.893.048-.22.21-.386.276-.599.07-.187-.052-.377-.027-.569.06-.581.165-1.156.257-1.733-.173-.145-.118-.375-.173-.57a1.33 1.33 0 01.103-.222l-.13-.12c.043-.205.03-.572.345-.506.02-.679-.216-1.336-.137-2.016l.125.149-.022-.23c.132-.07.271-.124.418-.152-.239-.031-.472-.092-.706-.146-.057-.15-.025-.308-.004-.46.09-.515.124-1.037.143-1.559.265-.092.557-.013.816-.137-.08-.652-.1-1.333.131-1.959.187-.533.544-1.047 1.1-1.234.263-.063.594-.134.78.122l.153-.142c-.424-.843.083-2.075 1.046-2.248zm3.396 3.656c-.112.068-.222.147-.104.271a4.667 4.667 0 01-.173.099c-.09.07-.295.11-.271.25.102.165.19.337.263.516.223-.183.4-.43.52-.69l.102-.103a1.163 1.163 0 00-.084-.347 27.95 27.95 0 01-.253.004z"/></symbol><symbol viewBox="0 0 15 14" id="ticket" xmlns="http://www.w3.org/2000/svg"><path opacity=".4" d="M14.438 8.107a1.113 1.113 0 01-1.117-1.106c0-.611.5-1.108 1.117-1.108A.555.555 0 0015 5.336l-.002-2.008C15 1.631 13.605.25 11.892.25H3.108C1.395.25.001 1.63.001 3.328L0 5.401a.555.555 0 00.563.557c.636 0 1.116.448 1.116 1.043 0 .61-.5 1.106-1.117 1.106A.56.56 0 000 8.665v2.006c0 1.697 1.393 3.079 3.107 3.079h8.786c1.713 0 3.107-1.382 3.107-3.079V8.665a.56.56 0 00-.563-.558z"/><path d="M10.072 6.691l-.884.861.21 1.218a.55.55 0 01-.223.543.547.547 0 01-.585.04L7.5 8.78l-1.094.575a.553.553 0 01-.804-.585l.208-1.218-.884-.86a.553.553 0 01.31-.947l1.22-.178.546-1.108a.554.554 0 01.497-.309h.002c.212.001.402.12.496.31l.547 1.107 1.222.179a.55.55 0 01.447.375.548.548 0 01-.14.57z"/></symbol><symbol viewBox="0 0 28 24" id="ticket-star" xmlns="http://www.w3.org/2000/svg"><path fill-rule="evenodd" clip-rule="evenodd" d="M24.175 11.943c0 1.08.909 1.958 2.026 1.958.564 0 1.021.442 1.021.986v3.55c0 3.003-2.529 5.447-5.639 5.447H5.64C2.53 23.884 0 21.44 0 18.437v-3.55c0-.544.457-.986 1.02-.986 1.118 0 2.028-.878 2.028-1.958 0-1.051-.872-1.844-2.027-1.844-.271 0-.531-.104-.722-.288A.97.97 0 010 9.113l.001-3.667C.001 2.443 2.531 0 5.641 0h15.94c3.11 0 5.64 2.443 5.64 5.446l.001 3.552a.97.97 0 01-.3.698 1.04 1.04 0 01-.72.288c-1.118 0-2.027.879-2.027 1.96zm-7.498.976l1.605-1.523a.953.953 0 00.254-1.008.99.99 0 00-.811-.665l-2.217-.316-.992-1.958a1.005 1.005 0 00-.902-.548h-.002c-.384 0-.73.21-.903.546l-.992 1.96-2.213.315a.997.997 0 00-.817.666.958.958 0 00.255 1.008l1.604 1.523-.378 2.154a.965.965 0 00.402.962 1.019 1.019 0 001.057.073l1.985-1.017 1.98 1.016c.343.177.75.15 1.062-.073a.96.96 0 00.403-.961l-.38-2.154z"/></symbol><symbol viewBox="0 0 24 24" id="unlocked" xmlns="http://www.w3.org/2000/svg"><path d="M19.501 9.94h-.967V6.535A6.542 6.542 0 0012 0a6.499 6.499 0 00-3.722 1.166L9.65 3.051A4.182 4.182 0 0112 2.33a4.208 4.208 0 014.204 4.204V9.94H4.498c-.765 0-1.385.62-1.385 1.385v11.291c0 .764.62 1.384 1.385 1.384H19.5c.765 0 1.385-.62 1.385-1.384V11.325c0-.765-.62-1.385-1.385-1.385zm-6.115 9.746h-2.773l.496-2.365a1.66 1.66 0 01-.774-1.402 1.665 1.665 0 013.329 0 1.66 1.66 0 01-.774 1.402l.496 2.365z"/></symbol><symbol viewBox="0 0 24 24" id="victory" xmlns="http://www.w3.org/2000/svg"><path d="M16.923 14.264a.687.687 0 01-.321-1.295c2.633-1.396 4.407-3.673 4.993-6.412a1.216 1.216 0 00-.234-1.028c-.21-.26-.51-.403-.843-.403h-1.9a.688.688 0 010-1.375h1.901a2.45 2.45 0 011.913.915c.49.608.676 1.403.508 2.18-.673 3.142-2.695 5.749-5.694 7.337a.684.684 0 01-.323.08zm-9.846.229a.687.687 0 01-.321-.08c-3-1.589-5.021-4.195-5.695-7.338a2.585 2.585 0 01.509-2.18 2.447 2.447 0 011.913-.915h1.9a.688.688 0 010 1.375h-1.9c-.333 0-.633.144-.843.404a1.215 1.215 0 00-.234 1.028c.587 2.74 2.36 5.016 4.994 6.412a.688.688 0 01-.323 1.294z"/><path d="M18.966 1.487A1.56 1.56 0 0017.83 1H6.171c-.431 0-.844.174-1.137.486-.32.33-.467.76-.44 1.182l.046.944c.01.12.01.239.027.367.019.449.055.907.11 1.375a44.18 44.18 0 001.256 6.984c.174.688.376 1.347.587 1.989.476 1.457 1.035 2.787 1.659 3.877A6.412 6.412 0 0112 17.041a6.41 6.41 0 013.721 1.164c.66-1.155 1.256-2.585 1.751-4.152.21-.642.403-1.31.568-1.998.587-2.264 1-4.684 1.201-6.93.055-.467.082-.925.11-1.374 0-.046.01-.092.01-.138l.045-.926c.027-.44-.12-.87-.44-1.2zM12 18.416c-2.527 0-4.583 1.748-4.583 3.895 0 .38.308.688.687.688h7.791c.38 0 .688-.308.688-.688 0-2.147-2.056-3.895-4.583-3.895z"/></symbol><symbol viewBox="0 0 22 22" id="vkontakte" xmlns="http://www.w3.org/2000/svg"><path fill-rule="evenodd" clip-rule="evenodd" d="M11 0C4.925 0 0 4.925 0 11s4.925 11 11 11 11-4.925 11-11S17.075 0 11 0zm6.511 6.988c.486 0 .588.25.486.59-.204.935-2.16 3.689-2.16 3.689-.17.272-.237.408 0 .714.085.117.263.292.468.493.21.206.448.439.638.663.689.775 1.208 1.43 1.353 1.88.132.452-.097.682-.555.682h-1.605c-.43 0-.646-.241-1.113-.761-.199-.22-.442-.491-.766-.815-.952-.918-1.36-1.037-1.598-1.037-.323 0-.42.091-.42.55v1.439c0 .394-.126.624-1.146.624-1.7 0-3.568-1.033-4.894-2.936-1.988-2.788-2.532-4.896-2.532-5.32 0-.239.091-.455.55-.455H5.82c.41 0 .565.18.718.624.785 2.286 2.108 4.284 2.652 4.284.204 0 .298-.094.298-.612V8.92c-.037-.673-.272-.963-.446-1.179-.108-.133-.192-.237-.192-.385 0-.18.154-.369.408-.369h2.522c.34 0 .458.182.458.59v3.179c0 .34.148.459.25.459.204 0 .374-.12.748-.493 1.156-1.292 1.972-3.28 1.972-3.28.102-.239.29-.455.698-.455h1.604z"/></symbol><symbol viewBox="0 0 24 24" id="warning" xmlns="http://www.w3.org/2000/svg"><path d="M22.25 17.55L14.63 3.71a3 3 0 00-5.26 0L1.75 17.55A3 3 0 004.38 22h15.24a2.999 2.999 0 002.63-4.45zM12 18a1 1 0 110-2 1 1 0 010 2zm1-5a1 1 0 01-2 0V9a1 1 0 112 0v4z"/></symbol><symbol viewBox="0 0 22 22" id="youtube" xmlns="http://www.w3.org/2000/svg"><path d="M21.78 6.6s-.214-1.517-.876-2.183c-.838-.876-1.774-.88-2.204-.932-3.077-.224-7.696-.224-7.696-.224h-.008s-4.62 0-7.696.224c-.43.051-1.366.056-2.204.932C.434 5.083.223 6.6.223 6.6S0 8.383 0 10.162v1.667c0 1.78.22 3.563.22 3.563s.214 1.516.871 2.182c.838.877 1.938.847 2.428.941 1.762.168 7.481.22 7.481.22s4.623-.01 7.7-.228c.43-.052 1.366-.056 2.204-.933.662-.666.877-2.182.877-2.182s.219-1.78.219-3.563v-1.667c0-1.779-.22-3.562-.22-3.562zM8.728 13.853V7.67l5.942 3.102-5.942 3.081z"/></symbol></svg>