<svg width="20" height="20" viewBox="0 0 20 20" fill="none" xmlns="http://www.w3.org/2000/svg">
<path d="M10 20C15.5228 20 20 15.5228 20 10C20 4.47717 15.5228 0 10 0C4.47717 0 0 4.47717 0 10C0 15.5228 4.47717 20 10 20Z" fill="url(#paint0_linear)"/>
<path d="M3.72434 10.4895C4.89333 9.84556 6.19825 9.30815 7.4175 8.76798C9.51508 7.88323 11.621 7.01381 13.7482 6.2044C14.162 6.06648 14.9057 5.9316 14.9786 6.54494C14.9387 7.4131 14.7744 8.27619 14.6617 9.13927C14.3758 11.0373 14.0453 12.9288 13.723 14.8205C13.612 15.4506 12.8226 15.7769 12.3175 15.3736C11.1037 14.5537 9.8805 13.7418 8.68217 12.9029C8.28963 12.504 8.65363 11.9312 9.00421 11.6464C10.004 10.6611 11.0642 9.82402 12.0117 8.78785C12.2673 8.17065 11.5121 8.69081 11.263 8.85019C9.89437 9.79336 8.55921 10.7941 7.11621 11.623C6.37913 12.0288 5.52004 11.682 4.78329 11.4556C4.1227 11.1821 3.15469 10.9066 3.72428 10.4895L3.72434 10.4895Z" fill="white"/>
<defs>
<linearGradient id="paint0_linear" x1="7.50117" y1="0.834" x2="2.50117" y2="12.5" gradientUnits="userSpaceOnUse">
<stop stop-color="#37AEE2"/>
<stop offset="1" stop-color="#1E96C8"/>
</linearGradient>
</defs>
</svg>
