<svg width="28" height="24" viewBox="0 0 28 24" fill="none" xmlns="http://www.w3.org/2000/svg">
<path fill-rule="evenodd" clip-rule="evenodd" d="M24.1746 11.9433C24.1746 13.0227 25.0839 13.901 26.2013 13.901C26.7648 13.901 27.2222 14.3427 27.2222 14.8871V18.4369C27.2222 21.4398 24.6932 23.884 21.5831 23.884H5.63907C2.52894 23.884 0 21.4398 0 18.4369V14.8871C0 14.3427 0.457332 13.901 1.02083 13.901C2.1383 13.901 3.04752 13.0227 3.04752 11.9433C3.04752 10.8915 2.17641 10.0987 1.02083 10.0987C0.749971 10.0987 0.489999 9.99482 0.299444 9.81076C0.107528 9.62537 0 9.37426 0 9.11262L0.00136111 5.44575C0.00136111 2.44283 2.53166 0 5.64043 0H21.5817C24.6905 0 27.2208 2.44283 27.2208 5.44575L27.2222 8.99823C27.2222 9.25987 27.1146 9.51099 26.9227 9.69637C26.7322 9.88044 26.4722 9.98431 26.2013 9.98431C25.0839 9.98431 24.1746 10.8626 24.1746 11.9433ZM16.6769 12.9194L18.2817 11.3961C18.5607 11.1334 18.6573 10.7473 18.5362 10.3877C18.4164 10.0294 18.1034 9.77467 17.725 9.72292L15.5077 9.40712L14.5155 7.44864C14.3453 7.11161 13.9996 6.90196 13.6144 6.90063H13.6117C13.2279 6.90063 12.8822 7.11028 12.7093 7.44731L11.717 9.40712L9.50388 9.72159C9.12141 9.77467 8.80835 10.0294 8.68721 10.3877C8.56744 10.7473 8.66408 11.1334 8.94174 11.3961L10.5465 12.9194L10.1681 15.0729C10.1028 15.4458 10.2566 15.8133 10.5696 16.0349C10.7466 16.1596 10.9521 16.2233 11.1603 16.2233C11.3196 16.2233 11.4802 16.1835 11.6272 16.1079L13.6117 15.0915L15.5921 16.1066C15.9351 16.2844 16.3421 16.2565 16.6538 16.0336C16.9682 15.8133 17.122 15.4458 17.0567 15.0729L16.6769 12.9194Z" fill="#FFA959"/>
</svg>
