<svg width="18" height="18" viewBox="0 0 18 18" fill="none" xmlns="http://www.w3.org/2000/svg">
<path d="M5.66064 16.3129C12.4531 16.3129 16.1683 10.6854 16.1683 5.80527C16.1683 5.64543 16.1683 5.48631 16.1575 5.32791C16.8803 4.80512 17.5042 4.15782 18 3.41631C17.326 3.71511 16.611 3.91097 15.8789 3.99735C16.6499 3.53586 17.2269 2.80994 17.5025 1.95471C16.7776 2.38491 15.9845 2.68808 15.1574 2.85111C14.6006 2.25904 13.8642 1.86699 13.0621 1.73562C12.2601 1.60425 11.4371 1.74089 10.7205 2.1244C10.0039 2.5079 9.43367 3.11689 9.09806 3.85712C8.76245 4.59735 8.68016 5.42756 8.86392 6.21927C7.39567 6.14562 5.95932 5.76404 4.64809 5.09931C3.33686 4.43458 2.18007 3.50155 1.2528 2.36079C0.780546 3.17378 0.635904 4.13621 0.848325 5.0521C1.06075 5.968 1.61426 6.7685 2.39616 7.29063C1.80842 7.27341 1.23349 7.11485 0.72 6.82839V6.87519C0.720233 7.72783 1.01539 8.55413 1.5554 9.21396C2.09542 9.87379 2.84705 10.3265 3.6828 10.4953C3.13911 10.6437 2.56866 10.6653 2.01528 10.5587C2.25136 11.2925 2.71082 11.9341 3.32943 12.3939C3.94804 12.8537 4.69487 13.1088 5.46552 13.1233C4.69983 13.7252 3.82299 14.1702 2.88516 14.4328C1.94733 14.6955 0.966911 14.7707 0 14.6541C1.68887 15.7378 3.65394 16.3127 5.66064 16.3101" fill="#1DA1F2"/>
</svg>
