<svg width="21" height="14" viewBox="0 0 21 14" fill="none" xmlns="http://www.w3.org/2000/svg">
<g clip-path="url(#clip0)">
<path d="M20.536 2.18361C20.4156 1.76155 20.1806 1.37678 19.8545 1.0676C19.5285 0.75842 19.1227 0.535625 18.6775 0.4214C17.0479 0 10.4892 0 10.4892 0C10.4892 0 3.93011 0.0127555 2.30047 0.434156C1.85533 0.548388 1.44952 0.771194 1.12344 1.08039C0.797369 1.38958 0.562413 1.77437 0.441973 2.19644C-0.0509523 4.94184 -0.242167 9.1252 0.455509 11.7608C0.575961 12.1828 0.810922 12.5676 1.137 12.8768C1.46307 13.186 1.86888 13.4088 2.31401 13.523C3.94364 13.9444 10.5025 13.9444 10.5025 13.9444C10.5025 13.9444 17.0613 13.9444 18.6909 13.523C19.136 13.4088 19.5419 13.186 19.868 12.8768C20.194 12.5676 20.429 12.1828 20.5495 11.7608C21.0694 9.01149 21.2296 4.83078 20.536 2.18369V2.18361Z" fill="#FF0000"/>
<path d="M8.40164 9.96026L13.8427 6.9722L8.40172 3.98413L8.40164 9.96026Z" fill="white"/>
</g>
<defs>
<clipPath id="clip0">
<rect width="21" height="14" fill="white"/>
</clipPath>
</defs>
</svg>
