<svg width="16" height="12" viewBox="0 0 16 12" fill="none" xmlns="http://www.w3.org/2000/svg">
<path d="M15.8215 5.38406C14.988 4.02097 13.8674 2.92573 12.4598 2.09838C11.052 1.27099 9.56549 0.857254 8 0.857254C6.43451 0.857254 4.94793 1.27084 3.54018 2.09838C2.1324 2.92573 1.01183 4.02097 0.178505 5.38406C0.0595122 5.59237 0 5.79774 0 6.00017C0 6.2026 0.0595122 6.40797 0.178505 6.61621C1.01183 7.97936 2.1324 9.07469 3.54018 9.90186C4.94793 10.7293 6.43451 11.1428 8 11.1428C9.56552 11.1428 11.052 10.7307 12.4598 9.90636C13.8674 9.08198 14.9882 7.98521 15.8215 6.61621C15.9405 6.40797 16 6.20269 16 6.00017C16 5.79774 15.9405 5.59237 15.8215 5.38406ZM6.08469 2.94206C6.6174 2.40936 7.25577 2.14291 7.99991 2.14291C8.1189 2.14291 8.22016 2.18469 8.30353 2.26797C8.38678 2.35128 8.42863 2.45251 8.42863 2.57154C8.42863 2.69066 8.38678 2.79182 8.30372 2.87501C8.22047 2.95841 8.11915 3.00007 8.00012 3.00007C7.48825 3.00007 7.05062 3.1817 6.68757 3.54472C6.3244 3.90795 6.14292 4.3454 6.14292 4.85727C6.14292 4.97645 6.10114 5.07756 6.01786 5.16093C5.93446 5.24437 5.83332 5.28599 5.7143 5.28599C5.59518 5.28599 5.49401 5.24427 5.41064 5.16093C5.32724 5.07756 5.28558 4.97633 5.28558 4.85727C5.28558 4.11329 5.55202 3.47479 6.08469 2.94206ZM11.8795 8.91548C10.686 9.63851 9.39289 10.0002 8 10.0002C6.60714 10.0002 5.31401 9.63873 4.12057 8.91548C2.92714 8.19224 1.93457 7.2205 1.14293 6.00017C2.04768 4.59536 3.18161 3.54469 4.54469 2.8484C4.18162 3.46735 4.00002 4.13706 4.00002 4.85724C4.00002 5.95854 4.39146 6.90026 5.17412 7.68312C5.95679 8.46597 6.89885 8.85722 8 8.85722C9.10124 8.85722 10.043 8.46575 10.8259 7.68312C11.6087 6.90048 12 5.95854 12 4.85724C12 4.13706 11.8184 3.46725 11.4553 2.8484C12.8183 3.54469 13.9523 4.59545 14.857 6.00017C14.0655 7.2205 13.073 8.19224 11.8795 8.91548Z" fill="#927E99"/>
</svg>
