<svg width="48" height="48" viewBox="0 0 48 48" fill="none" xmlns="http://www.w3.org/2000/svg">
<path fill-rule="evenodd" clip-rule="evenodd" d="M19.8257 24.1284V37.6575C19.8257 37.8287 19.9969 38 20.1682 38H25.2202C25.3914 38 25.5627 37.8287 25.5627 37.6575V23.8716H29.2446C29.4159 23.8716 29.5872 23.7003 29.5872 23.5291L29.9297 19.419C29.9297 19.2477 29.7584 19.0765 29.5872 19.0765H25.5627V16.0795C25.5627 15.3945 26.1621 14.7951 26.8471 14.7951H29.6728C29.844 14.7951 30.0153 14.6239 30.0153 14.4526V10.3425C30.0153 10.1713 29.844 10 29.6728 10H24.8777C22.1376 10 19.8257 12.2263 19.8257 15.052V19.0765H17.3425C17.1713 19.0765 17 19.1621 17 19.419V23.5291C17 23.7003 17.1713 23.8716 17.3425 23.8716H19.8257V24.1284Z" fill="#927E99"/>
</svg>
