<svg width="48" height="48" viewBox="0 0 48 48" fill="none" xmlns="http://www.w3.org/2000/svg">
<path fill-rule="evenodd" clip-rule="evenodd" d="M18.1571 22.2577V22.0801H27.6579C28.1906 25.0102 27.7467 28.2067 25.882 30.6041C24.639 32.2912 22.9519 33.3567 20.9097 33.8894C19.8442 34.2446 18.7787 34.3334 17.6244 34.2446C15.5822 34.067 13.8063 33.4455 12.2081 32.2912C10.0771 30.7817 8.74517 28.7395 8.21242 26.2533C8.03483 25.3654 7.94604 24.3887 8.03483 23.5008C8.21242 21.3697 8.92275 19.4163 10.2546 17.7293C11.6753 15.9534 13.5399 14.8879 15.671 14.2664C16.2037 14.0888 16.8253 14 17.358 14H18.3347C20.0218 14.0888 21.62 14.444 23.1295 15.3319C23.7896 15.752 24.2469 16.1315 24.5563 16.3882C24.7047 16.5113 24.819 16.6062 24.9053 16.6638L21.9752 19.5939C21.2649 18.9724 20.4657 18.3508 19.0451 18.1732C15.8485 17.6405 13.096 19.8603 12.3856 22.7904C12.2969 23.412 12.2081 24.0335 12.2969 24.6551C12.4744 27.1412 14.1615 29.1835 16.4701 29.8938C17.1804 30.1602 17.9796 30.249 18.6899 30.1602C19.7554 30.0714 20.7321 29.805 21.62 29.1835C23.1295 28.2067 23.5735 26.6085 23.5735 26.1645H18.1571V22.2577ZM36.4483 22.2575H39.9112H40V22.3463V24.8325V25.0101H39.9112H36.4483V28.3842V28.473H36.3595H33.7845H33.6957V28.3842V25.0101H30.2328H30.144V24.8325V22.3463V22.2575H30.2328H33.6957V18.7946V18.7058H33.7845H36.3595H36.4483V18.7946V22.2575Z" fill="#927E99"/>
</svg>
