<svg width="48" height="48" viewBox="0 0 48 48" fill="none" xmlns="http://www.w3.org/2000/svg">
<path d="M10.5033 16.9324C11.8231 16.9324 14.5727 16.9324 15.5075 16.9324C15.7275 16.9324 15.8925 17.0424 15.9475 17.2073C17.1023 19.7369 18.5321 21.9916 20.1818 23.9713C20.3468 24.1912 20.6767 24.1912 20.7867 23.9163C21.3366 22.6515 22.2715 19.517 20.4018 17.2623C20.2368 17.0424 20.2918 16.7674 20.5667 16.6574C22.4914 15.8876 24.3611 15.7226 26.1759 16.5475C26.5608 16.7124 26.8358 17.0974 26.8358 17.5373L27.2757 23.9713C27.2757 24.2462 27.5506 24.4662 27.8256 24.4112C29.9153 23.9713 31.1801 20.8368 32.3899 17.5373C32.5548 17.1524 32.9398 16.8774 33.3797 16.8774H37.999C38.3839 16.8774 38.6589 17.2073 38.6039 17.5923C38.164 19.9019 35.7993 22.9264 34.5895 24.4112C34.1496 24.9061 34.1496 25.621 34.5895 26.1709L38.7139 31.1201C38.9888 31.4501 38.7689 32 38.2739 32H33.0498C32.6098 32 32.2249 31.835 31.895 31.5051L28.2105 28.4806C28.0456 28.2606 27.6606 28.2056 27.4956 28.4256C27.0557 28.9755 27.0557 29.6354 26.8358 31.1751C26.7808 31.6701 26.3408 32 25.8459 32H22.2715C21.7766 32 21.2816 31.89 20.7867 31.6701C18.807 30.6802 13.1979 27.2708 10.0084 17.5923C9.95343 17.2623 10.1734 16.9324 10.5033 16.9324Z" fill="#01D6E3"/>
</svg>
