<?xml version="1.0" standalone="no"?>
<!DOCTYPE svg PUBLIC "-//W3C//DTD SVG 20010904//EN"
 "http://www.w3.org/TR/2001/REC-SVG-20010904/DTD/svg10.dtd">
<svg version="1.0" xmlns="http://www.w3.org/2000/svg"
 width="280.000000pt" height="280.000000pt" viewBox="0 0 280.000000 280.000000"
 preserveAspectRatio="xMidYMid meet">
<metadata>
Created by potrace 1.14, written by Peter Selinger 2001-2017
</metadata>
<g transform="translate(0.000000,280.000000) scale(0.100000,-0.100000)"
fill="#000000" stroke="none">
<path d="M1185 2783 c-44 -7 -111 -23 -150 -34 -38 -11 -85 -24 -102 -28 -67
-18 -281 -133 -365 -196 -282 -213 -462 -496 -539 -846 -19 -84 -23 -136 -23
-264 -1 -179 5 -231 40 -368 125 -488 512 -874 1006 -1003 35 -9 72 -18 83
-20 168 -30 402 -27 549 6 117 26 253 72 315 106 24 13 48 24 53 24 5 0 21 8
36 18 15 11 47 32 72 48 302 195 508 485 599 842 29 113 35 170 36 327 0 181
-8 245 -51 391 -117 406 -401 728 -794 902 -54 24 -197 70 -243 77 -17 4 -52
11 -77 17 -70 17 -352 18 -445 1z"/>
</g>
</svg>
