<svg width="12" height="16" viewBox="0 0 12 16" fill="none" xmlns="http://www.w3.org/2000/svg">
<path opacity="0.4" d="M5.99241 12.966L1.12361 15.398C0.75593 15.5976 0.297285 15.4643 0.0916364 15.0981C0.0315765 14.983 -0.00018342 14.8551 -0.000976562 14.725V9.28149C-0.000976562 9.82118 0.303323 10.1543 1.10376 10.5274L5.99241 12.966Z" fill="#170D40"/>
<path fill-rule="evenodd" clip-rule="evenodd" d="M3.67047 0.5H8.30112C10.332 0.5 11.9792 1.29954 11.999 3.34503V14.7251C11.9982 14.8531 11.9664 14.9788 11.9064 15.0916C11.81 15.2755 11.6435 15.412 11.4451 15.4698C11.2468 15.5276 11.0336 15.5017 10.8546 15.3981L5.99241 12.9661L1.10376 10.5275C0.303323 10.1544 -0.000976562 9.82129 -0.000976562 9.2816V3.34503C-0.000976562 1.29954 1.64621 0.5 3.67047 0.5ZM3.16707 6.21682H8.80985C9.13501 6.21682 9.39861 5.95133 9.39861 5.62383C9.39861 5.29633 9.13501 5.03084 8.80985 5.03084H3.16707C2.84191 5.03084 2.57832 5.29633 2.57832 5.62383C2.57832 5.95133 2.84191 6.21682 3.16707 6.21682Z" fill="#170D40"/>
</svg>
