<svg width="14" height="16" viewBox="0 0 14 16" fill="none" xmlns="http://www.w3.org/2000/svg">
<path fill-rule="evenodd" clip-rule="evenodd" d="M0.25 11.6526V5.94287H13.75V11.6984C13.75 14.0526 12.2681 15.5001 9.89709 15.5001H4.0955C1.74671 15.5001 0.25 14.0226 0.25 11.6526ZM3.96954 9.80772C3.6287 9.82347 3.34714 9.55272 3.33232 9.20847C3.33232 8.86347 3.59906 8.57847 3.9399 8.56272C4.27332 8.56272 4.54747 8.82597 4.55488 9.16272C4.5697 9.50847 4.30296 9.79347 3.96954 9.80772ZM7.01495 9.80772C6.67411 9.82347 6.39255 9.55272 6.37773 9.20847C6.37773 8.86347 6.64447 8.57847 6.98531 8.56272C7.31873 8.56272 7.59288 8.82597 7.60029 9.16272C7.61511 9.50847 7.34837 9.79347 7.01495 9.80772ZM10.0383 12.5677C9.69744 12.5602 9.42329 12.2752 9.42329 11.9302C9.41588 11.5852 9.69003 11.301 10.0309 11.2935H10.0383C10.3865 11.2935 10.6681 11.5785 10.6681 11.9302C10.6681 12.2827 10.3865 12.5677 10.0383 12.5677ZM6.37773 11.9301C6.39255 12.2751 6.67411 12.5459 7.01495 12.5301C7.34837 12.5159 7.61511 12.2309 7.60029 11.8859C7.59288 11.5484 7.31873 11.2851 6.98531 11.2851C6.64447 11.3009 6.37773 11.5851 6.37773 11.9301ZM3.32529 11.9301C3.34011 12.2751 3.62167 12.5459 3.96251 12.5301C4.29593 12.5159 4.56267 12.2309 4.54785 11.8859C4.54044 11.5484 4.26629 11.2851 3.93287 11.2851C3.59203 11.3009 3.32529 11.5851 3.32529 11.9301ZM9.43018 9.20085C9.43018 8.85585 9.69692 8.57835 10.0378 8.57085C10.3712 8.57085 10.6379 8.8401 10.6527 9.17085C10.6601 9.51585 10.3934 9.80085 10.06 9.8076C9.71914 9.8151 9.43758 9.5526 9.43018 9.20835V9.20085Z" fill="#170D40"/>
<path opacity="0.4" d="M0.25293 5.94268C0.262562 5.50243 0.299609 4.62868 0.369258 4.34743C0.724911 2.76568 1.93265 1.76068 3.65905 1.61743H10.3424C12.0539 1.76818 13.2765 2.77993 13.6322 4.34743C13.7011 4.62118 13.7381 5.50168 13.7477 5.94268H0.25293Z" fill="#170D40"/>
<path d="M4.22873 3.9425C4.55475 3.9425 4.79926 3.69575 4.79926 3.365V1.07825C4.79926 0.7475 4.55475 0.5 4.22873 0.5C3.90271 0.5 3.6582 0.7475 3.6582 1.07825V3.365C3.6582 3.69575 3.90271 3.9425 4.22873 3.9425Z" fill="#170D40"/>
<path d="M9.7717 3.9425C10.0903 3.9425 10.3422 3.69575 10.3422 3.365V1.07825C10.3422 0.7475 10.0903 0.5 9.7717 0.5C9.44568 0.5 9.20117 0.7475 9.20117 1.07825V3.365C9.20117 3.69575 9.44568 3.9425 9.7717 3.9425Z" fill="#170D40"/>
</svg>
