<svg width="16" height="16" viewBox="0 0 16 16" fill="none" xmlns="http://www.w3.org/2000/svg">
<path opacity="0.4" d="M11.0562 0.5H13.5957C14.6474 0.5 15.4996 1.35939 15.4996 2.41997V4.98089C15.4996 6.04148 14.6474 6.90087 13.5957 6.90087H11.0562C10.0045 6.90087 9.15234 6.04148 9.15234 4.98089V2.41997C9.15234 1.35939 10.0045 0.5 11.0562 0.5Z" fill="#170D40"/>
<path fill-rule="evenodd" clip-rule="evenodd" d="M2.40389 0.5H4.94337C5.99507 0.5 6.84726 1.35939 6.84726 2.41997V4.98089C6.84726 6.04148 5.99507 6.90087 4.94337 6.90087H2.40389C1.35219 6.90087 0.5 6.04148 0.5 4.98089V2.41997C0.5 1.35939 1.35219 0.5 2.40389 0.5ZM2.40389 9.09918H4.94337C5.99507 9.09918 6.84726 9.95857 6.84726 11.0192V13.5801C6.84726 14.6399 5.99507 15.5 4.94337 15.5H2.40389C1.35219 15.5 0.5 14.6399 0.5 13.5801V11.0192C0.5 9.95857 1.35219 9.09918 2.40389 9.09918ZM13.5962 9.09918H11.0567C10.005 9.09918 9.15283 9.95857 9.15283 11.0192V13.5801C9.15283 14.6399 10.005 15.5 11.0567 15.5H13.5962C14.6479 15.5 15.5001 14.6399 15.5001 13.5801V11.0192C15.5001 9.95857 14.6479 9.09918 13.5962 9.09918Z" fill="#170D40"/>
</svg>
