<svg width="16" height="16" viewBox="0 0 16 16" fill="none" xmlns="http://www.w3.org/2000/svg">
<path opacity="0.4" d="M0.5 3.83525C0.5 1.997 2.02268 0.5 3.8934 0.5H7.61423C9.48114 0.5 11 1.9925 11 3.82775V12.1648C11 14.0037 9.47732 15.5 7.60584 15.5H3.88653C2.01886 15.5 0.5 14.0075 0.5 12.1722V11.4672V3.83525Z" fill="#170D40"/>
<path d="M15.3349 7.59104L13.2006 5.40929C12.98 5.18429 12.625 5.18429 12.4051 5.41079C12.186 5.63729 12.1867 6.00254 12.4066 6.22754L13.576 7.42229H12.4548H6.16205C5.85161 7.42229 5.59961 7.68104 5.59961 7.99979C5.59961 8.31929 5.85161 8.57729 6.16205 8.57729H13.576L12.4066 9.77204C12.1867 9.99704 12.186 10.3623 12.4051 10.5888C12.5154 10.702 12.6593 10.759 12.8039 10.759C12.9471 10.759 13.091 10.702 13.2006 10.5903L15.3349 8.40929C15.4408 8.30054 15.5007 8.15354 15.5007 7.99979C15.5007 7.84679 15.4408 7.69979 15.3349 7.59104Z" fill="#170D40"/>
</svg>
